<svg width="77" height="77" viewBox="0 0 77 77" fill="none" xmlns="http://www.w3.org/2000/svg">
<circle cx="38.5" cy="38.5" r="38.5" fill="#6C5DD2"/>
<path d="M31 39C34.8687 39 38 35.6451 38 31.5C38 27.3549 34.8687 24 31 24C27.1313 24 24 27.3549 24 31.5C24 35.6451 27.1313 39 31 39ZM35.8 41.1429H35.2812C33.9812 41.8125 32.5375 42.2143 31 42.2143C29.4625 42.2143 28.025 41.8125 26.7188 41.1429H26.2C22.225 41.1429 19 44.5982 19 48.8571V50.7857C19 52.5603 20.3438 54 22 54H40C41.6562 54 43 52.5603 43 50.7857V48.8571C43 44.5982 39.775 41.1429 35.8 41.1429ZM49 39C52.3125 39 55 36.1205 55 32.5714C55 29.0223 52.3125 26.1429 49 26.1429C45.6875 26.1429 43 29.0223 43 32.5714C43 36.1205 45.6875 39 49 39ZM52 41.1429H51.7625C50.8938 41.4643 49.975 41.6786 49 41.6786C48.025 41.6786 47.1062 41.4643 46.2375 41.1429H46C44.725 41.1429 43.55 41.5379 42.5187 42.1741C44.0437 43.9353 45 46.2723 45 48.8571V51.4286C45 51.5759 44.9688 51.7165 44.9625 51.8571H56C57.6562 51.8571 59 50.4174 59 48.6429C59 44.4978 55.8688 41.1429 52 41.1429Z" fill="white"/>
</svg>
