<svg width="77" height="77" viewBox="0 0 77 77" fill="none" xmlns="http://www.w3.org/2000/svg">
<circle cx="38.5" cy="38.5" r="38.5" fill="#6C5DD2"/>
<path d="M38 19C26.9516 19 18 27.9516 18 39C18 50.0484 26.9516 59 38 59C49.0484 59 58 50.0484 58 39C58 27.9516 49.0484 19 38 19ZM42.6048 47.2339L35.4919 42.0645C35.2419 41.879 35.0968 41.5887 35.0968 41.2823V27.7097C35.0968 27.1774 35.5323 26.7419 36.0645 26.7419H39.9355C40.4677 26.7419 40.9032 27.1774 40.9032 27.7097V38.8145L46.0242 42.5403C46.4597 42.8548 46.5484 43.4597 46.2339 43.8952L43.9597 47.0242C43.6452 47.4516 43.0403 47.5484 42.6048 47.2339Z" fill="white"/>
</svg>
