<svg width="77" height="77" viewBox="0 0 77 77" fill="none" xmlns="http://www.w3.org/2000/svg">
<circle cx="38.5" cy="38.5" r="38.5" fill="#6C5DD2"/>
<path d="M18 37.125V53.0625C18 53.5805 18.4475 54 19 54H24V35.25H20C18.8956 35.25 18 36.0897 18 37.125ZM40.5 34.3125H39V31.9688C39 31.7098 38.7763 31.5 38.5 31.5H37.5C37.2237 31.5 37 31.7098 37 31.9688V35.7188C37 35.9777 37.2237 36.1875 37.5 36.1875H40.5C40.7763 36.1875 41 35.9777 41 35.7188V34.7813C41 34.5223 40.7763 34.3125 40.5 34.3125ZM49.1094 30.5648L39.1094 24.3147C38.7808 24.1095 38.3948 24 38 24C37.6052 24 37.2192 24.1095 36.8906 24.3147L26.8906 30.5648C26.6167 30.736 26.3921 30.968 26.2368 31.2401C26.0814 31.5122 26.0001 31.816 26 32.1246V54H34V45.5625C34 45.0445 34.4475 44.625 35 44.625H41C41.5525 44.625 42 45.0445 42 45.5625V54H50V32.1252C50 31.4982 49.6656 30.9123 49.1094 30.5648ZM38 39C35.2388 39 33 36.9012 33 34.3125C33 31.7238 35.2388 29.625 38 29.625C40.7612 29.625 43 31.7238 43 34.3125C43 36.9012 40.7612 39 38 39ZM56 35.25H52V54H57C57.5525 54 58 53.5805 58 53.0625V37.125C58 36.0897 57.1044 35.25 56 35.25Z" fill="white"/>
</svg>
