<svg width="77" height="77" viewBox="0 0 77 77" fill="none" xmlns="http://www.w3.org/2000/svg">
<circle cx="38.5" cy="38.5" r="38.5" fill="#1E2128"/>
<path d="M28.907 20.3102C28.8199 20.2119 28.7164 20.1339 28.6024 20.0806C28.4885 20.0274 28.3663 20 28.2429 20C28.1195 20 27.9974 20.0274 27.8834 20.0806C27.7695 20.1339 27.666 20.2119 27.5789 20.3102L22.6039 25.8746L20.8304 23.9304C20.7433 23.8321 20.6398 23.7541 20.5259 23.7008C20.4119 23.6476 20.2898 23.6202 20.1664 23.6202C20.043 23.6202 19.9208 23.6476 19.8068 23.7008C19.6929 23.7541 19.5894 23.8321 19.5023 23.9304L18.2757 25.3121C18.1883 25.41 18.119 25.5265 18.0717 25.6547C18.0244 25.7829 18 25.9203 18 26.0591C18 26.1979 18.0244 26.3354 18.0717 26.4636C18.119 26.5918 18.1883 26.7082 18.2757 26.8062L21.9937 30.9722C22.1793 31.1707 22.4256 31.2813 22.6816 31.2813C22.9376 31.2813 23.1839 31.1707 23.3695 30.9722L24.5875 29.5994L30.2281 23.2545C30.4038 23.0567 30.5031 22.7888 30.5044 22.5091C30.5058 22.2294 30.409 21.9604 30.2351 21.7604L28.907 20.3102ZM28.907 34.3015C28.8199 34.2032 28.7164 34.1252 28.6024 34.0719C28.4885 34.0187 28.3663 33.9913 28.2429 33.9913C28.1195 33.9913 27.9974 34.0187 27.8834 34.0719C27.7695 34.1252 27.666 34.2032 27.5789 34.3015L22.6039 39.9019L20.8304 37.9595C20.7433 37.8612 20.6398 37.7832 20.5259 37.73C20.4119 37.6767 20.2898 37.6493 20.1664 37.6493C20.043 37.6493 19.9208 37.6767 19.8068 37.73C19.6929 37.7832 19.5894 37.8612 19.5023 37.9595L18.2757 39.3385C18.1883 39.4365 18.119 39.5529 18.0717 39.6811C18.0244 39.8093 18 39.9468 18 40.0856C18 40.2244 18.0244 40.3619 18.0717 40.4901C18.119 40.6183 18.1883 40.7347 18.2757 40.8327L21.9843 45.0075C22.1698 45.2059 22.4159 45.3165 22.6718 45.3165C22.9278 45.3165 23.1739 45.2059 23.3593 45.0075L24.5859 43.6285L30.2265 37.281C30.4016 37.0845 30.5006 36.8182 30.5019 36.54C30.5032 36.2618 30.4068 35.9942 30.2336 35.7957L28.907 34.3015ZM23 49.5338C20.9304 49.5338 19.2039 51.4235 19.2039 53.7526C19.2039 56.0817 20.932 57.9713 23 57.9713C23.9945 57.9713 24.9483 57.5269 25.6516 56.7357C26.3549 55.9445 26.75 54.8715 26.75 53.7526C26.75 52.6337 26.3549 51.5607 25.6516 50.7695C24.9483 49.9783 23.9945 49.5338 23 49.5338ZM56.75 50.9401H34.25C33.9184 50.9401 33.6005 51.0882 33.3661 51.352C33.1317 51.6157 33 51.9734 33 52.3463V55.1588C33 55.5318 33.1317 55.8895 33.3661 56.1532C33.6005 56.4169 33.9184 56.5651 34.25 56.5651H56.75C57.0815 56.5651 57.3994 56.4169 57.6338 56.1532C57.8683 55.8895 58 55.5318 58 55.1588V52.3463C58 51.9734 57.8683 51.6157 57.6338 51.352C57.3994 51.0882 57.0815 50.9401 56.75 50.9401ZM56.75 22.8151H34.25C33.9184 22.8151 33.6005 22.9632 33.3661 23.227C33.1317 23.4907 33 23.8484 33 24.2213V27.0338C33 27.4068 33.1317 27.7645 33.3661 28.0282C33.6005 28.2919 33.9184 28.4401 34.25 28.4401H56.75C57.0815 28.4401 57.3994 28.2919 57.6338 28.0282C57.8683 27.7645 58 27.4068 58 27.0338V24.2213C58 23.8484 57.8683 23.4907 57.6338 23.227C57.3994 22.9632 57.0815 22.8151 56.75 22.8151ZM56.75 36.8776H34.25C33.9184 36.8776 33.6005 37.0257 33.3661 37.2895C33.1317 37.5532 33 37.9109 33 38.2838V41.0963C33 41.4693 33.1317 41.827 33.3661 42.0907C33.6005 42.3544 33.9184 42.5026 34.25 42.5026H56.75C57.0815 42.5026 57.3994 42.3544 57.6338 42.0907C57.8683 41.827 58 41.4693 58 41.0963V38.2838C58 37.9109 57.8683 37.5532 57.6338 37.2895C57.3994 37.0257 57.0815 36.8776 56.75 36.8776Z" fill="white"/>
</svg>
