<svg width="77" height="77" viewBox="0 0 77 77" fill="none" xmlns="http://www.w3.org/2000/svg">
<circle cx="38.5" cy="38.5" r="38.5" fill="#1E2128"/>
<path d="M51.8955 57H55.2909C57.0091 57 58.4205 55.8358 58.625 54.3442L62 24.367H51.7727V17H47.7432V24.367H37.5773L38.1909 28.6235C41.6886 29.4784 44.9614 31.0246 46.925 32.7344C49.8705 35.3174 51.8955 37.9914 51.8955 42.357V57ZM17 55.181V53.3802H47.7432V55.181C47.7432 56.1814 46.8227 57 45.6773 57H19.0659C17.9205 57 17 56.1814 17 55.181ZM47.7432 42.4479C47.7432 27.8959 17 27.8959 17 42.4479H47.7432ZM17.0409 46.1041H47.7227V49.7422H17.0409V46.1041Z" fill="white"/>
</svg>
