<svg width="77" height="77" viewBox="0 0 77 77" fill="none" xmlns="http://www.w3.org/2000/svg">
<circle cx="38.5" cy="38.5" r="38.5" fill="#1E2128"/>
<path d="M58.7825 44.935L62 41.7175L58.7825 38.5L50.75 46.5325L31.4675 27.25L39.5 19.2175L36.2825 16L33.065 19.2175L29.8475 16L25.0325 20.815L21.815 17.5975L18.5975 20.815L21.815 24.0325L17 28.8475L20.2175 32.065L17 35.2825L20.2175 38.5L28.25 30.4675L47.5325 49.75L39.5 57.7825L42.7175 61L45.935 57.7825L49.1525 61L53.9675 56.185L57.185 59.4025L60.4025 56.185L57.185 52.9675L62 48.1525L58.7825 44.935Z" fill="white"/>
</svg>
