<svg width="77" height="77" viewBox="0 0 77 77" fill="none" xmlns="http://www.w3.org/2000/svg">
<circle cx="38.5" cy="38.5" r="38.5" fill="#1E2128"/>
<path d="M60.22 39.11C60.22 51.3211 50.3211 61.22 38.11 61.22C25.899 61.22 16 51.3211 16 39.11C16 26.899 25.899 17 38.11 17C50.3211 17 60.22 26.899 60.22 39.11ZM55.9406 39.11L55.9404 39.0849L53.6167 41.1123L48.0287 35.8968L49.4956 28.3763L52.5538 28.6502C50.3349 25.5997 47.2043 23.2931 43.5753 22.1294L44.7923 24.9769L38.11 28.6791L31.4277 24.977L32.6447 22.1295C29.0223 23.291 25.8887 25.5949 23.6662 28.6503L26.7478 28.3763L28.1913 35.8968L22.6034 41.1123L20.2797 39.0849L20.2794 39.11C20.2794 42.9449 21.4827 46.5946 23.7093 49.6293L24.3962 46.6073L31.9865 47.5386L35.2229 54.4771L32.557 56.0628C36.1411 57.2326 40.0717 57.2349 43.663 56.0628L40.9971 54.4771L44.2335 47.5386L51.8238 46.6073L52.5107 49.6293C54.7373 46.5946 55.9406 42.9449 55.9406 39.11ZM33.8216 45.3125L31.1564 37.1717L38.11 32.1322L45.0636 37.1717L42.4227 45.3125H33.8216Z" fill="white"/>
</svg>
