<svg width="77" height="77" viewBox="0 0 77 77" fill="none" xmlns="http://www.w3.org/2000/svg">
<circle cx="38.5" cy="38.5" r="38.5" fill="#1E2128"/>
<path d="M32.5 20.5001V29.429L18.1297 37.6399C17.9384 37.7494 17.7794 37.9075 17.6688 38.0982C17.5582 38.2889 17.5 38.5054 17.5 38.7259V43.8431C17.5 44.6735 18.2945 45.2727 19.093 45.0446L32.5 41.2141V49.2501L28 52.6251C27.6852 52.861 27.5 53.2321 27.5 53.6251V56.7493C27.5 57.5626 28.2641 58.1595 29.0531 57.9618L37.5 55.5001L45.9469 57.9618C46.7359 58.1595 47.5 57.5626 47.5 56.7493V53.6251C47.5 53.2313 47.3148 52.861 47 52.6251L42.5 49.2501V41.2141L55.9062 45.0446C56.7047 45.2727 57.5 44.6735 57.5 43.8431V38.7259C57.5 38.2774 57.2594 37.8634 56.8703 37.6407L42.5 29.429V20.5001C42.5 17.7384 40.2617 13.0001 37.5 13.0001C34.7383 13.0001 32.5 17.7384 32.5 20.5001Z" fill="white"/>
</svg>
