<svg width="77" height="77" viewBox="0 0 77 77" fill="none" xmlns="http://www.w3.org/2000/svg">
<circle cx="38.5" cy="38.5" r="38.5" fill="#1E2128"/>
<path d="M43 44.75C43 45.4406 42.4406 46 41.75 46H34.25C33.5594 46 33 45.4406 33 44.75V41H18V52.25C18 54.25 19.75 56 21.75 56H54.25C56.25 56 58 54.25 58 52.25V41H43V44.75ZM54.25 28.5H48V24.75C48 22.75 46.25 21 44.25 21H31.75C29.75 21 28 22.75 28 24.75V28.5H21.75C19.75 28.5 18 30.25 18 32.25V38.5H58V32.25C58 30.25 56.25 28.5 54.25 28.5ZM43 28.5H33V26H43V28.5Z" fill="white"/>
</svg>
