<svg width="30" height="35" viewBox="0 0 30 35" fill="none" xmlns="http://www.w3.org/2000/svg">
<path d="M23.0714 4.375V4.875H23.5714H26.7857C28.2745 4.875 29.5 6.1111 29.5 7.65625V10.4375H0.5V7.65625C0.5 6.1111 1.72554 4.875 3.21429 4.875H6.42857H6.92857V4.375V1.09375C6.92857 0.758561 7.19653 0.5 7.5 0.5H9.64286C9.94633 0.5 10.2143 0.75856 10.2143 1.09375V4.375V4.875H10.7143H19.2857H19.7857V4.375V1.09375C19.7857 0.758561 20.0537 0.5 20.3571 0.5H22.5C22.8035 0.5 23.0714 0.75856 23.0714 1.09375V4.375ZM3.21429 34.5C1.72554 34.5 0.5 33.2639 0.5 31.7188V13.625H29.5V31.7188C29.5 33.2639 28.2745 34.5 26.7857 34.5H3.21429ZM22.2321 17C21.5044 17 20.9286 17.6028 20.9286 18.3203V21.0547C20.9286 21.7722 21.5044 22.375 22.2321 22.375H24.9107C25.6385 22.375 26.2143 21.7722 26.2143 21.0547V18.3203C26.2143 17.6028 25.6385 17 24.9107 17H22.2321ZM22.2321 25.75C21.5044 25.75 20.9286 26.3528 20.9286 27.0703V29.8047C20.9286 30.5222 21.5044 31.125 22.2321 31.125H24.9107C25.6385 31.125 26.2143 30.5222 26.2143 29.8047V27.0703C26.2143 26.3528 25.6385 25.75 24.9107 25.75H22.2321ZM13.6607 17C12.9329 17 12.3571 17.6028 12.3571 18.3203V21.0547C12.3571 21.7722 12.9329 22.375 13.6607 22.375H16.3393C17.0671 22.375 17.6429 21.7722 17.6429 21.0547V18.3203C17.6429 17.6028 17.0671 17 16.3393 17H13.6607ZM13.6607 25.75C12.9329 25.75 12.3571 26.3528 12.3571 27.0703V29.8047C12.3571 30.5222 12.9329 31.125 13.6607 31.125H16.3393C17.0671 31.125 17.6429 30.5222 17.6429 29.8047V27.0703C17.6429 26.3528 17.0671 25.75 16.3393 25.75H13.6607ZM5.08929 17C4.36151 17 3.78571 17.6028 3.78571 18.3203V21.0547C3.78571 21.7722 4.36151 22.375 5.08929 22.375H7.76786C8.49563 22.375 9.07143 21.7722 9.07143 21.0547V18.3203C9.07143 17.6028 8.49563 17 7.76786 17H5.08929ZM5.08929 25.75C4.36151 25.75 3.78571 26.3528 3.78571 27.0703V29.8047C3.78571 30.5222 4.36151 31.125 5.08929 31.125H7.76786C8.49563 31.125 9.07143 30.5222 9.07143 29.8047V27.0703C9.07143 26.3528 8.49563 25.75 7.76786 25.75H5.08929Z" fill="#666360" stroke="#666360"/>
</svg>
