<svg width="35" height="35" viewBox="0 0 35 35" fill="none" xmlns="http://www.w3.org/2000/svg">
<g clip-path="url(#clip0_6_65)">
<path d="M17.5 0.546875C8.13477 0.546875 0.546875 8.13477 0.546875 17.5C0.546875 26.8652 8.13477 34.4531 17.5 34.4531C26.8652 34.4531 34.4531 26.8652 34.4531 17.5C34.4531 8.13477 26.8652 0.546875 17.5 0.546875ZM21.4033 24.4795L15.374 20.0977C15.1621 19.9404 15.0391 19.6943 15.0391 19.4346V7.92969C15.0391 7.47852 15.4082 7.10938 15.8594 7.10938H19.1406C19.5918 7.10938 19.9609 7.47852 19.9609 7.92969V17.3428L24.3018 20.501C24.6709 20.7676 24.7461 21.2803 24.4795 21.6494L22.5518 24.3018C22.2852 24.6641 21.7725 24.7461 21.4033 24.4795Z" fill="#666360"/>
<line x1="17.8353" y1="24.05" x2="34.6353" y2="50.65" stroke="#666360"/>
</g>
<defs>
<clipPath id="clip0_6_65">
<rect width="35" height="35" fill="white"/>
</clipPath>
</defs>
</svg>
