<svg width="650" height="380" viewBox="0 0 650 380" fill="none" xmlns="http://www.w3.org/2000/svg">
<path d="M331.777 377.529C333.093 370.65 337.18 364.344 342.919 360.317" stroke="#6C5DD2" stroke-width="0.779" stroke-miterlimit="10"/>
<path d="M331.599 379.464C331.847 373.72 334.073 359.893 339.337 351.238" stroke="#6C5DD2" stroke-width="0.779" stroke-miterlimit="10"/>
<path d="M331.678 378.753C332.589 368.509 332.51 357.188 330.907 347.023" stroke="#6C5DD2" stroke-width="0.779" stroke-miterlimit="10"/>
<path d="M343.72 357.623L343.72 357.623C343.669 357.713 343.618 357.802 343.567 357.892C342.831 359.188 342.097 360.48 341.182 361.697C341.451 361.612 341.738 361.503 342.039 361.383C342.164 361.334 342.294 361.281 342.425 361.227C343.108 360.949 343.855 360.645 344.478 360.553L344.479 360.553C346.29 360.287 348.14 360.36 349.919 360.591L349.92 360.591C351.308 360.772 352.692 361.045 354.056 361.315C354.499 361.403 354.941 361.49 355.38 361.574C357.181 361.917 358.956 362.201 360.746 362.225L360.746 362.225C361.764 362.239 362.846 362.108 363.762 361.756C364.675 361.406 365.384 360.854 365.744 360.045L365.745 360.043C366.339 358.719 365.726 356.983 364.497 355.965L364.496 355.964C363.278 354.947 361.611 354.545 359.9 354.38L359.9 354.38C359.277 354.32 358.653 354.288 358.016 354.256C357.781 354.244 357.544 354.232 357.305 354.219C356.427 354.169 355.529 354.098 354.64 353.929L354.639 353.929C354.108 353.827 353.582 353.691 353.071 353.554C352.991 353.533 352.911 353.511 352.831 353.49C352.4 353.374 351.981 353.261 351.561 353.166C350.567 352.939 349.631 352.824 348.713 353.001L343.72 357.623ZM343.72 357.623L343.721 357.621M343.72 357.623L343.721 357.621M343.721 357.621C344.937 355.462 346.512 353.428 348.713 353.001L343.721 357.621Z" fill="#6C5DD2" stroke="#6C5DD2"/>
<path d="M340.691 350.462C339.998 351.243 339.326 351.973 338.613 352.553C338.645 352.334 338.702 352.07 338.786 351.764C339.024 350.891 339.446 349.777 339.928 348.629C340.658 346.89 341.502 345.125 342.016 344.052C342.181 343.708 342.311 343.435 342.393 343.256C344.087 339.595 346.704 336.145 350.415 335.11L350.415 335.11C351.989 334.671 353.627 334.689 355.333 334.84C355.917 334.892 356.518 334.961 357.127 335.03C358.261 335.16 359.423 335.293 360.557 335.326L360.559 335.326C361.103 335.339 361.657 335.33 362.198 335.321C362.463 335.317 362.726 335.313 362.982 335.311C363.777 335.306 364.548 335.326 365.306 335.439C366.817 335.665 368.265 336.34 368.977 337.539L368.978 337.54C369.528 338.46 369.556 339.583 369.181 340.659C368.805 341.738 368.037 342.726 367.072 343.335C365.094 344.583 362.558 344.669 360.082 344.396C359.364 344.316 358.672 344.215 357.971 344.111C357.439 344.033 356.901 343.954 356.343 343.883C355.082 343.724 353.794 343.62 352.488 343.723C349.162 343.98 346.071 345.547 343.518 347.58C342.587 348.319 341.75 349.265 340.95 350.17C340.863 350.268 340.777 350.366 340.691 350.462Z" fill="#6C5DD2" stroke="#6C5DD2"/>
<path d="M332.805 343.032C332.761 343.168 332.709 343.341 332.649 343.539C332.466 344.144 332.21 344.99 331.895 345.789C331.686 346.317 331.462 346.796 331.233 347.147C331.119 347.322 331.013 347.451 330.919 347.536C330.824 347.623 330.765 347.643 330.744 347.647L330.743 347.648C330.615 347.672 330.375 347.634 330.008 347.451C329.658 347.277 329.267 347.011 328.873 346.701C328.088 346.083 327.35 345.341 326.993 344.97C325.899 343.821 325.028 342.469 324.49 340.99L324.489 340.988C323.86 339.282 323.642 337.459 323.426 335.565C323.421 335.524 323.417 335.483 323.412 335.442C323.203 333.607 322.986 331.706 322.355 329.903L322.354 329.902C321.637 327.859 320.416 326.034 319.242 324.28C318.933 323.819 318.628 323.363 318.336 322.909C316.908 320.69 315.695 318.309 315.714 315.81C315.732 313.307 317.329 310.775 319.635 310.368L319.636 310.367C321.156 310.096 322.767 310.732 324.095 311.735L324.096 311.735C325.973 313.147 327.343 315.211 327.929 317.49C328.28 318.868 328.349 320.302 328.416 321.795L328.419 321.854C328.484 323.312 328.552 324.827 328.917 326.299C329.371 328.146 330.271 329.841 331.135 331.469C331.201 331.593 331.267 331.717 331.332 331.84C332.266 333.605 333.119 335.307 333.421 337.165L333.421 337.166C333.74 339.112 333.415 341.11 332.805 343.032ZM332.805 343.032C332.805 343.031 332.805 343.031 332.805 343.031L333.281 343.184M332.805 343.032C332.805 343.032 332.805 343.032 332.805 343.033L333.281 343.184M333.281 343.184C333.905 341.22 334.251 339.138 333.915 337.085L324.02 341.161C324.584 342.71 325.494 344.122 326.632 345.316C327.355 346.066 329.66 348.366 330.837 348.139C331.839 347.948 332.709 345.068 333.133 343.666C333.191 343.474 333.241 343.31 333.281 343.184ZM324.396 311.336C326.365 312.816 327.8 314.978 328.413 317.366C328.782 318.814 328.85 320.312 328.917 321.81C328.983 323.283 329.05 324.755 329.403 326.179L324.396 311.336ZM324.396 311.336C323.011 310.29 321.259 309.569 319.548 309.875L324.396 311.336Z" fill="#6C5DD2" stroke="#6C5DD2"/>
<path d="M331.579 377.787C330.907 368.737 328.571 358.513 323.495 350.982" stroke="#6C5DD2" stroke-width="0.779" stroke-miterlimit="10"/>
<path d="M322.312 344.161L322.313 344.163C323.04 346.185 323.489 348.303 323.864 350.436L323.864 350.437C323.884 350.548 323.918 350.691 323.951 350.833C323.964 350.888 323.977 350.943 323.989 350.996C324.036 351.201 324.08 351.411 324.103 351.612C324.127 351.817 324.126 351.983 324.101 352.105C324.078 352.223 324.041 352.261 324.02 352.276L324.02 352.276C324.003 352.289 323.949 352.317 323.804 352.296C323.658 352.274 323.473 352.207 323.263 352.1C322.848 351.887 322.442 351.57 322.237 351.389C321.869 351.053 321.544 350.666 321.219 350.247C321.104 350.097 320.985 349.939 320.863 349.778C320.655 349.501 320.439 349.215 320.222 348.948L320.222 348.947C317.289 345.355 312.653 343.625 308.17 342.985C305.926 342.665 303.669 342.581 301.428 342.545C300.837 342.535 300.247 342.529 299.659 342.523C298.01 342.506 296.374 342.489 294.739 342.399L294.736 342.398C293.72 342.349 292.791 342.238 292.102 341.75C291.2 341.107 290.829 339.797 291.103 338.609C291.375 337.432 292.188 336.394 293.186 335.54L293.187 335.54C295.39 333.654 298.316 332.703 301.265 332.511C304.215 332.319 307.192 332.847 310.097 333.63L310.097 333.63C312.896 334.384 315.63 335.397 317.781 337.201C319.909 338.992 321.362 341.491 322.312 344.161ZM324.434 350.701C324.402 350.566 324.374 350.446 324.356 350.349L321.902 351.761C322.348 352.155 323.674 353.152 324.317 352.678C324.815 352.312 324.585 351.34 324.434 350.701Z" fill="#6C5DD2" stroke="#6C5DD2"/>
<path d="M331.392 378.753C330.996 370.858 327.434 363.16 321.675 357.732" stroke="#6C5DD2" stroke-width="0.779" stroke-miterlimit="10"/>
<path d="M318.679 353.555C316.684 352.497 314.425 351.809 312.2 351.187L318.679 353.555ZM318.679 353.555C318.829 353.635 318.967 353.708 319.103 353.789L319.103 353.79L319.114 353.796C319.991 354.289 320.573 355.147 321.208 356.112C321.283 356.227 321.396 356.455 321.548 356.78C321.594 356.88 321.643 356.986 321.695 357.097C321.802 357.33 321.918 357.583 322.036 357.826C322.085 357.928 322.135 358.031 322.187 358.132C319.49 357.377 316.51 357.405 313.899 357.43L313.874 357.43C310.352 357.46 306.83 358.112 303.537 359.378L303.535 359.379C303.1 359.548 302.675 359.724 302.255 359.897C300.65 360.561 299.128 361.19 297.486 361.28C296.939 361.306 296.355 361.228 295.882 361.028C295.413 360.83 295.097 360.535 294.971 360.139C294.775 359.498 295.117 358.747 295.675 358.003L295.677 358.002C296.785 356.515 298.214 355.297 299.686 354.048C301.604 352.424 303.515 350.852 305.81 350.407L318.679 353.555ZM322.864 358.341C322.62 357.912 322.372 357.372 322.151 356.894C321.941 356.438 321.757 356.037 321.625 355.838C321.002 354.89 320.359 353.923 319.36 353.36C319.211 353.272 319.063 353.193 318.915 353.114L322.864 358.341ZM305.81 350.407C307.872 350.009 310.023 350.58 312.2 351.187L305.81 350.407Z" fill="#6C5DD2" stroke="#6C5DD2"/>
<path d="M572.456 346.656L572.457 346.656C574.085 345.041 574.816 342.799 575.484 340.75C575.578 340.461 575.671 340.176 575.765 339.897C576.546 337.579 577.661 335.294 579.653 334.336C581.964 333.228 584.637 334.301 586.905 335.757C587.164 335.923 587.427 336.096 587.694 336.272C588.574 336.85 589.496 337.456 590.45 337.94C591.705 338.579 593.068 339.037 594.574 338.984C595.768 338.941 596.919 338.574 597.996 338.224L598.077 338.198C599.147 337.85 600.146 337.525 601.161 337.453C604.014 337.261 606.488 339.082 608.837 340.975L608.838 340.976C610.541 342.345 612.162 343.722 612.696 345.654L612.696 345.654C613.342 347.99 612.149 350.791 610.118 352.479L610.116 352.48C608.093 354.171 605.406 354.872 602.797 354.93L602.796 354.93C602.481 354.938 602.151 354.939 601.811 354.941C600.886 354.945 599.894 354.95 598.967 355.079C597.678 355.259 596.408 355.688 595.443 356.752L595.442 356.752C594.5 357.791 594.175 359.101 593.935 360.335C593.897 360.53 593.862 360.724 593.826 360.914C593.631 361.968 593.45 362.946 593.003 363.817C591.937 365.88 589.436 366.99 587.097 366.98C584.768 366.971 582.573 366.093 580.33 365.196L580.266 365.17C578.03 364.277 575.6 363.343 573.003 363.457C570.603 363.561 568.3 364.56 566.121 365.505C565.698 365.688 565.28 365.869 564.867 366.042L564.867 366.042C563.743 366.513 562.184 367.151 560.699 367.395C559.192 367.643 557.958 367.458 557.255 366.536L557.253 366.533C556.942 366.13 556.777 365.57 556.744 364.872C556.712 364.176 556.813 363.383 556.995 362.56C557.349 360.964 557.986 359.337 558.428 358.207C558.443 358.171 558.457 358.135 558.471 358.099C559.652 355.096 561.619 352.296 564.348 350.742C565.313 350.193 566.354 349.804 567.432 349.4C567.771 349.274 568.114 349.145 568.459 349.01C569.875 348.457 571.302 347.797 572.456 346.656Z" fill="#6C5DD2" stroke="#6C5DD2"/>
<path d="M557.332 366.571C570.502 355.29 585.869 347.819 602.452 344.641" stroke="white" stroke-width="0.7047" stroke-miterlimit="10" stroke-linecap="round" stroke-linejoin="round"/>
<path d="M570.354 349.222C570.661 345.501 569.958 341.622 571.185 338.099C573.372 331.822 580.951 328.546 582.851 322.18C585.127 314.571 578.181 306.803 579.388 298.957C579.892 295.651 581.802 292.74 582.989 289.611C584.177 286.482 584.484 282.564 582.178 280.127C579.764 277.58 575.38 277.876 572.511 279.909C569.641 281.943 567.989 285.239 566.643 288.486C565.308 291.733 564.13 295.128 561.864 297.822C557.738 302.727 550.317 304.879 548.061 310.87C545.765 316.969 550.109 323.423 550.881 329.888C551.465 334.783 549.971 339.658 548.635 344.416C547.309 349.173 546.132 354.206 547.349 358.983C548.971 365.348 554.72 369.405 560.232 365.319C565.684 361.302 569.79 356.219 570.354 349.222Z" fill="#6C5DD2"/>
<path d="M556.738 366.879C554.552 344.16 559.558 319.516 571.254 299.896" stroke="white" stroke-width="1.1364" stroke-miterlimit="10" stroke-linecap="round" stroke-linejoin="round"/>
<path d="M542.174 358.312C539.769 354.927 538.394 350.693 535.129 348.117C531.388 345.156 526.204 345.127 521.454 344.742C516.695 344.357 511.332 343.015 509.125 338.79C507.918 336.471 507.918 333.718 507.077 331.25C506.147 328.536 504.247 326.286 502.911 323.75C501.586 321.213 500.883 317.986 502.427 315.568C503.99 313.12 507.414 312.4 510.214 313.189C513.014 313.979 515.309 315.943 517.407 317.956C519.505 319.97 521.553 322.121 524.136 323.444C528.42 325.625 533.506 325.22 538.315 325.013C543.124 324.815 548.368 325.013 552.088 328.072C555.146 330.589 556.541 334.547 557.787 338.307C559.588 343.686 561.429 349.045 563.18 354.443C564.259 357.759 566.317 362.842 562.854 365.448C556.749 370.037 545.696 363.257 542.174 358.312Z" fill="#6C5DD2"/>
<path d="M560.924 365.643C553.286 347.958 537.118 332.897 517.764 326.255" stroke="white" stroke-width="0.8174" stroke-miterlimit="10" stroke-linecap="round" stroke-linejoin="round"/>
<path d="M120.837 364.831C123.024 361.584 124.29 357.419 127.229 355.041C130.603 352.326 135.244 352.682 139.518 352.632C143.783 352.593 148.602 351.636 150.62 347.53C151.728 345.28 151.738 342.497 152.52 340.059C153.371 337.384 155.093 335.253 156.31 332.785C157.517 330.318 158.17 327.11 156.814 324.554C155.429 321.968 152.371 320.991 149.858 321.583C147.345 322.176 145.267 323.992 143.377 325.867C141.487 327.742 139.637 329.765 137.302 330.91C133.443 332.805 128.891 332.015 124.577 331.453C120.263 330.9 115.563 330.722 112.209 333.535C109.448 335.855 108.172 339.753 107.014 343.454C105.362 348.754 103.67 354.034 102.057 359.353C101.067 362.63 99.1775 367.604 102.265 370.496C107.677 375.608 117.641 369.568 120.837 364.831Z" fill="#6C5DD2"/>
<path d="M103.976 370.871C110.962 353.561 125.567 339.536 142.962 334.236" stroke="white" stroke-width="0.7781" stroke-miterlimit="10" stroke-linecap="round" stroke-linejoin="round"/>
<path d="M94.3983 355.742C94.1608 352.317 94.7149 348.754 93.7354 345.507C91.984 339.734 85.9086 336.723 84.3848 330.871C82.5642 323.873 88.1251 316.728 87.1653 309.504C86.7596 306.464 85.2259 303.789 84.276 300.907C83.3261 298.026 83.0787 294.423 84.9291 292.183C86.8684 289.834 90.3712 290.11 92.6766 291.986C94.9722 293.861 96.2981 296.891 97.3766 299.871C98.4452 302.852 99.3951 305.98 101.206 308.458C104.511 312.968 110.457 314.942 112.258 320.459C114.099 326.074 110.616 332.006 110.002 337.957C109.537 342.467 110.734 346.948 111.803 351.32C112.872 355.692 113.812 360.321 112.832 364.723C111.536 370.575 106.925 374.306 102.512 370.556C98.1484 366.855 94.8535 362.176 94.3983 355.742Z" fill="#6C5DD2"/>
<path d="M105.302 371.976C107.054 351.083 103.036 328.413 93.6759 310.362" stroke="white" stroke-width="0.9754" stroke-miterlimit="10" stroke-linecap="round" stroke-linejoin="round"/>
<path d="M97.191 349.679L97.1916 349.679C100.567 352.006 103.03 355.985 104.535 360.174C104.554 360.229 104.575 360.286 104.595 360.343C105.151 361.896 105.957 364.147 106.422 366.342C106.663 367.479 106.809 368.581 106.786 369.548C106.763 370.521 106.571 371.307 106.188 371.859L106.186 371.861C105.346 373.082 103.851 373.235 102.019 372.783C100.212 372.337 98.3046 371.351 96.9376 370.627L96.9373 370.627C96.4455 370.367 95.9476 370.096 95.4454 369.822C94.3609 369.231 93.2565 368.63 92.1513 368.109C90.5249 367.342 88.8428 366.722 87.1025 366.526L87.1024 366.526C83.9856 366.174 81.0766 367.241 78.4047 368.284L78.321 368.316C75.6471 369.36 73.0267 370.382 70.2073 370.205C67.3799 370.027 64.2662 368.336 62.8818 365.361C62.3062 364.117 62.0563 362.74 61.7953 361.301C61.7485 361.043 61.7014 360.783 61.6519 360.522C61.3337 358.84 60.9198 357.107 59.8039 355.69C58.6606 354.232 57.1597 353.559 55.6024 353.215C54.4786 352.967 53.2803 352.884 52.1587 352.807C51.7554 352.779 51.362 352.751 50.9856 352.717L50.9847 352.717C47.8352 352.439 44.5502 351.278 42.0295 348.802L42.0289 348.802C39.4954 346.322 37.9319 342.357 38.683 339.147C39.3034 336.515 41.2581 334.756 43.2593 333.058L43.2598 333.058C46.051 330.683 48.9988 328.402 52.454 328.889L52.4547 328.889C53.6946 329.062 54.9218 329.584 56.224 330.138C56.2525 330.15 56.281 330.162 56.3095 330.174C57.6151 330.729 58.9998 331.31 60.4278 331.457C62.2306 331.643 63.8564 331.131 65.3521 330.368C66.4862 329.788 67.58 329.044 68.6261 328.333C68.9457 328.116 69.2609 327.901 69.5714 327.695L69.5725 327.695C72.2652 325.901 75.4781 324.643 78.3414 326.337C79.5762 327.071 80.5587 328.248 81.3599 329.661C82.1605 331.073 82.7639 332.692 83.254 334.276L83.2544 334.277C83.3776 334.671 83.499 335.072 83.6216 335.476C84.4763 338.298 85.3892 341.311 87.3517 343.565C88.7441 345.172 90.4545 346.162 92.1755 347.018C92.5951 347.227 93.013 347.427 93.4273 347.625C94.7349 348.251 96.0073 348.86 97.191 349.679Z" fill="#6C5DD2" stroke="#6C5DD2"/>
<path d="M106.015 371.741C89.8764 355.496 71.1655 344.225 51.099 338.659" stroke="white" stroke-width="0.8986" stroke-miterlimit="10" stroke-linecap="round" stroke-linejoin="round"/>
<path d="M568.435 77.47C568.435 80.5986 565.892 83.135 562.755 83.135C559.619 83.135 557.076 80.5986 557.076 77.47C557.076 74.3414 559.619 71.805 562.755 71.805C565.882 71.805 568.435 74.3414 568.435 77.47Z" stroke="#6C5DD2" stroke-width="2" stroke-miterlimit="10" stroke-linecap="round" stroke-linejoin="round"/>
<path d="M566.862 81.3766L570.869 85.3829" stroke="#6C5DD2" stroke-width="2" stroke-miterlimit="10" stroke-linecap="round" stroke-linejoin="round"/>
<path d="M346.226 1.16449L352.201 7.12455" stroke="#6C5DD2" stroke-width="2" stroke-miterlimit="10" stroke-linecap="round" stroke-linejoin="round"/>
<path d="M352.201 1.16449L346.226 7.12455" stroke="#6C5DD2" stroke-width="2" stroke-miterlimit="10" stroke-linecap="round" stroke-linejoin="round"/>
<path d="M431.871 344.291L437.846 350.251" stroke="#6C5DD2" stroke-width="2" stroke-miterlimit="10" stroke-linecap="round" stroke-linejoin="round"/>
<path d="M437.846 344.291L431.871 350.251" stroke="#6C5DD2" stroke-width="2" stroke-miterlimit="10" stroke-linecap="round" stroke-linejoin="round"/>
<path d="M52.6665 265.311V273.739" stroke="#6C5DD2" stroke-width="2" stroke-miterlimit="10" stroke-linecap="round" stroke-linejoin="round"/>
<path d="M56.9021 269.524H48.4421" stroke="#6C5DD2" stroke-width="2" stroke-miterlimit="10" stroke-linecap="round" stroke-linejoin="round"/>
<path d="M34.289 200.597C34.289 203.42 31.9935 205.719 29.1537 205.719C26.3238 205.719 24.0183 203.43 24.0183 200.597C24.0183 197.774 26.3139 195.475 29.1537 195.475C31.9935 195.485 34.289 197.774 34.289 200.597Z" stroke="#6C5DD2" stroke-width="2" stroke-miterlimit="10" stroke-linecap="round" stroke-linejoin="round"/>
<path d="M247.436 324.484C247.436 327.306 245.14 329.606 242.301 329.606C239.471 329.606 237.165 327.316 237.165 324.484C237.165 321.661 239.461 319.361 242.301 319.361C245.14 319.371 247.436 321.661 247.436 324.484Z" stroke="#6C5DD2" stroke-width="2" stroke-miterlimit="10" stroke-linecap="round" stroke-linejoin="round"/>
<path d="M586.331 232.236C586.331 235.058 584.036 237.358 581.196 237.358C578.366 237.358 576.061 235.068 576.061 232.236C576.061 229.413 578.356 227.114 581.196 227.114C584.036 227.123 586.331 229.413 586.331 232.236Z" stroke="#6C5DD2" stroke-width="2" stroke-miterlimit="10" stroke-linecap="round" stroke-linejoin="round"/>
<path d="M3.21978 110.832C3.21978 111.579 2.61215 112.187 1.85989 112.187C1.10763 112.187 0.5 111.579 0.5 110.832C0.5 110.085 1.10763 109.477 1.85989 109.477C2.61214 109.477 3.21978 110.085 3.21978 110.832Z" fill="#824AC2" stroke="#824AC2"/>
<path d="M16.2116 110.831C16.2116 111.578 15.604 112.186 14.8517 112.186C14.0994 112.186 13.4918 111.578 13.4918 110.831C13.4918 110.084 14.0995 109.476 14.8517 109.476C15.604 109.476 16.2116 110.084 16.2116 110.831Z" fill="#824AC2" stroke="#824AC2"/>
<path d="M29.1935 110.831C29.1935 111.578 28.5859 112.186 27.8336 112.186C27.0814 112.186 26.4738 111.578 26.4738 110.831C26.4738 110.084 27.0814 109.476 27.8336 109.476C28.5859 109.476 29.1935 110.084 29.1935 110.831Z" fill="#824AC2" stroke="#824AC2"/>
<path d="M42.1854 110.831C42.1854 111.578 41.5777 112.186 40.8255 112.186C40.0732 112.186 39.4656 111.578 39.4656 110.831C39.4656 110.084 40.0732 109.476 40.8255 109.476C41.5777 109.476 42.1854 110.084 42.1854 110.831Z" fill="#824AC2" stroke="#824AC2"/>
<path d="M55.167 110.831C55.167 111.578 54.5594 112.186 53.8071 112.186C53.0549 112.186 52.4473 111.578 52.4473 110.831C52.4473 110.084 53.0549 109.476 53.8071 109.476C54.5594 109.476 55.167 110.084 55.167 110.831Z" fill="#824AC2" stroke="#824AC2"/>
<path d="M68.1587 110.831C68.1587 111.578 67.5511 112.186 66.7988 112.186C66.0466 112.186 65.439 111.578 65.439 110.831C65.439 110.084 66.0466 109.476 66.7988 109.476C67.5511 109.476 68.1587 110.084 68.1587 110.831Z" fill="#824AC2" stroke="#824AC2"/>
<path d="M3.21978 123.78C3.21978 124.527 2.61214 125.135 1.85989 125.135C1.10763 125.135 0.5 124.527 0.5 123.78C0.5 123.033 1.10763 122.425 1.85989 122.425C2.61214 122.425 3.21978 123.033 3.21978 123.78Z" fill="#824AC2" stroke="#824AC2"/>
<path d="M16.2116 123.78C16.2116 124.527 15.604 125.135 14.8517 125.135C14.0995 125.135 13.4918 124.527 13.4918 123.78C13.4918 123.033 14.0995 122.425 14.8517 122.425C15.604 122.425 16.2116 123.033 16.2116 123.78Z" fill="#824AC2" stroke="#824AC2"/>
<path d="M29.1935 123.78C29.1935 124.527 28.5859 125.135 27.8336 125.135C27.0814 125.135 26.4738 124.527 26.4738 123.78C26.4738 123.033 27.0814 122.425 27.8336 122.425C28.5859 122.425 29.1935 123.033 29.1935 123.78Z" fill="#824AC2" stroke="#824AC2"/>
<path d="M42.1854 123.78C42.1854 124.527 41.5777 125.135 40.8255 125.135C40.0732 125.135 39.4656 124.527 39.4656 123.78C39.4656 123.033 40.0732 122.425 40.8255 122.425C41.5777 122.425 42.1854 123.033 42.1854 123.78Z" fill="#824AC2" stroke="#824AC2"/>
<path d="M55.167 123.78C55.167 124.527 54.5594 125.135 53.8071 125.135C53.0549 125.135 52.4473 124.527 52.4473 123.78C52.4473 123.033 53.0549 122.425 53.8071 122.425C54.5594 122.425 55.167 123.033 55.167 123.78Z" fill="#824AC2" stroke="#824AC2"/>
<path d="M68.1587 123.78C68.1587 124.527 67.5511 125.135 66.7988 125.135C66.0466 125.135 65.439 124.527 65.439 123.78C65.439 123.033 66.0466 122.425 66.7988 122.425C67.5511 122.425 68.1587 123.033 68.1587 123.78Z" fill="#824AC2" stroke="#824AC2"/>
<path d="M3.21978 136.738C3.21978 137.486 2.61215 138.093 1.85989 138.093C1.10763 138.093 0.5 137.486 0.5 136.738C0.5 135.991 1.10763 135.383 1.85989 135.383C2.61214 135.383 3.21978 135.991 3.21978 136.738Z" fill="#824AC2" stroke="#824AC2"/>
<path d="M16.2116 136.738C16.2116 137.486 15.604 138.093 14.8517 138.093C14.0994 138.093 13.4918 137.486 13.4918 136.738C13.4918 135.991 14.0995 135.383 14.8517 135.383C15.604 135.383 16.2116 135.991 16.2116 136.738Z" fill="#824AC2" stroke="#824AC2"/>
<path d="M29.1935 136.738C29.1935 137.486 28.5859 138.093 27.8336 138.093C27.0814 138.093 26.4738 137.486 26.4738 136.738C26.4738 135.991 27.0814 135.383 27.8336 135.383C28.5859 135.383 29.1935 135.991 29.1935 136.738Z" fill="#824AC2" stroke="#824AC2"/>
<path d="M42.1854 136.738C42.1854 137.486 41.5777 138.093 40.8255 138.093C40.0732 138.093 39.4656 137.486 39.4656 136.738C39.4656 135.991 40.0732 135.383 40.8255 135.383C41.5777 135.383 42.1854 135.991 42.1854 136.738Z" fill="#824AC2" stroke="#824AC2"/>
<path d="M55.167 136.738C55.167 137.486 54.5594 138.093 53.8071 138.093C53.0549 138.093 52.4473 137.486 52.4473 136.738C52.4473 135.991 53.0549 135.383 53.8071 135.383C54.5594 135.383 55.167 135.991 55.167 136.738Z" fill="#824AC2" stroke="#824AC2"/>
<path d="M68.1587 136.738C68.1587 137.486 67.5511 138.093 66.7988 138.093C66.0466 138.093 65.439 137.486 65.439 136.738C65.439 135.991 66.0466 135.383 66.7988 135.383C67.5511 135.383 68.1587 135.991 68.1587 136.738Z" fill="#824AC2" stroke="#824AC2"/>
<path d="M3.21978 149.687C3.21978 150.434 2.61214 151.042 1.85989 151.042C1.10763 151.042 0.5 150.434 0.5 149.687C0.5 148.94 1.10763 148.332 1.85989 148.332C2.61214 148.332 3.21978 148.94 3.21978 149.687Z" fill="#824AC2" stroke="#824AC2"/>
<path d="M16.2116 149.687C16.2116 150.434 15.604 151.042 14.8517 151.042C14.0995 151.042 13.4918 150.434 13.4918 149.687C13.4918 148.94 14.0995 148.332 14.8517 148.332C15.604 148.332 16.2116 148.94 16.2116 149.687Z" fill="#824AC2" stroke="#824AC2"/>
<path d="M29.1935 149.687C29.1935 150.434 28.5859 151.042 27.8336 151.042C27.0814 151.042 26.4738 150.434 26.4738 149.687C26.4738 148.94 27.0814 148.332 27.8336 148.332C28.5859 148.332 29.1935 148.94 29.1935 149.687Z" fill="#824AC2" stroke="#824AC2"/>
<path d="M42.1854 149.687C42.1854 150.434 41.5777 151.042 40.8255 151.042C40.0732 151.042 39.4656 150.434 39.4656 149.687C39.4656 148.94 40.0732 148.332 40.8255 148.332C41.5777 148.332 42.1854 148.94 42.1854 149.687Z" fill="#824AC2" stroke="#824AC2"/>
<path d="M55.167 149.687C55.167 150.434 54.5594 151.042 53.8071 151.042C53.0549 151.042 52.4473 150.434 52.4473 149.687C52.4473 148.94 53.0549 148.332 53.8071 148.332C54.5594 148.332 55.167 148.94 55.167 149.687Z" fill="#824AC2" stroke="#824AC2"/>
<path d="M68.1587 149.687C68.1587 150.434 67.5511 151.042 66.7988 151.042C66.0466 151.042 65.439 150.434 65.439 149.687C65.439 148.94 66.0466 148.332 66.7988 148.332C67.5511 148.332 68.1587 148.94 68.1587 149.687Z" fill="#824AC2" stroke="#824AC2"/>
<path d="M203.636 354.809C203.636 355.556 203.028 356.164 202.276 356.164C201.524 356.164 200.916 355.556 200.916 354.809C200.916 354.062 201.524 353.454 202.276 353.454C203.028 353.454 203.636 354.062 203.636 354.809Z" fill="#824AC2" stroke="#824AC2"/>
<path d="M216.628 354.809C216.628 355.556 216.02 356.164 215.268 356.164C214.516 356.164 213.908 355.556 213.908 354.809C213.908 354.062 214.516 353.454 215.268 353.454C216.02 353.454 216.628 354.062 216.628 354.809Z" fill="#824AC2" stroke="#824AC2"/>
<path d="M229.61 354.809C229.61 355.556 229.002 356.164 228.25 356.164C227.498 356.164 226.89 355.556 226.89 354.809C226.89 354.062 227.498 353.454 228.25 353.454C229.002 353.454 229.61 354.062 229.61 354.809Z" fill="#824AC2" stroke="#824AC2"/>
<path d="M242.601 354.809C242.601 355.556 241.994 356.164 241.241 356.164C240.489 356.164 239.882 355.556 239.882 354.809C239.882 354.062 240.489 353.454 241.241 353.454C241.994 353.454 242.601 354.062 242.601 354.809Z" fill="#824AC2" stroke="#824AC2"/>
<path d="M255.583 354.809C255.583 355.556 254.976 356.164 254.223 356.164C253.471 356.164 252.864 355.556 252.864 354.809C252.864 354.062 253.471 353.454 254.223 353.454C254.976 353.454 255.583 354.062 255.583 354.809Z" fill="#824AC2" stroke="#824AC2"/>
<path d="M203.636 367.767C203.636 368.514 203.028 369.122 202.276 369.122C201.524 369.122 200.916 368.514 200.916 367.767C200.916 367.02 201.524 366.412 202.276 366.412C203.028 366.412 203.636 367.02 203.636 367.767Z" fill="#824AC2" stroke="#824AC2"/>
<path d="M216.628 367.767C216.628 368.514 216.02 369.122 215.268 369.122C214.516 369.122 213.908 368.514 213.908 367.767C213.908 367.02 214.516 366.412 215.268 366.412C216.02 366.412 216.628 367.02 216.628 367.767Z" fill="#824AC2" stroke="#824AC2"/>
<path d="M229.61 367.767C229.61 368.514 229.002 369.122 228.25 369.122C227.498 369.122 226.89 368.514 226.89 367.767C226.89 367.02 227.498 366.412 228.25 366.412C229.002 366.412 229.61 367.02 229.61 367.767Z" fill="#824AC2" stroke="#824AC2"/>
<path d="M242.601 367.767C242.601 368.514 241.994 369.122 241.241 369.122C240.489 369.122 239.882 368.514 239.882 367.767C239.882 367.02 240.489 366.412 241.241 366.412C241.994 366.412 242.601 367.02 242.601 367.767Z" fill="#824AC2" stroke="#824AC2"/>
<path d="M255.583 367.767C255.583 368.514 254.976 369.122 254.223 369.122C253.471 369.122 252.864 368.514 252.864 367.767C252.864 367.02 253.471 366.412 254.223 366.412C254.976 366.412 255.583 367.02 255.583 367.767Z" fill="#824AC2" stroke="#824AC2"/>
<path d="M532.758 30.7779C532.758 31.5251 532.151 32.133 531.399 32.133C530.646 32.133 530.039 31.525 530.039 30.7779C530.039 30.0307 530.646 29.4227 531.399 29.4227C532.151 29.4227 532.758 30.0306 532.758 30.7779Z" fill="#824AC2" stroke="#824AC2"/>
<path d="M545.741 30.7771C545.741 31.5243 545.133 32.1322 544.381 32.1322C543.629 32.1322 543.021 31.5243 543.021 30.7771C543.021 30.0299 543.629 29.422 544.381 29.422C545.133 29.422 545.741 30.0299 545.741 30.7771Z" fill="#824AC2" stroke="#824AC2"/>
<path d="M558.732 30.7771C558.732 31.5243 558.125 32.1322 557.373 32.1322C556.62 32.1322 556.013 31.5243 556.013 30.7771C556.013 30.0299 556.62 29.422 557.373 29.422C558.125 29.422 558.732 30.0299 558.732 30.7771Z" fill="#824AC2" stroke="#824AC2"/>
<path d="M532.759 43.7356C532.759 44.4828 532.151 45.0907 531.399 45.0907C530.646 45.0907 530.039 44.4828 530.039 43.7356C530.039 42.9884 530.646 42.3805 531.399 42.3805C532.151 42.3805 532.759 42.9884 532.759 43.7356Z" fill="#824AC2" stroke="#824AC2"/>
<path d="M545.741 43.7356C545.741 44.4828 545.133 45.0907 544.381 45.0907C543.629 45.0907 543.021 44.4828 543.021 43.7356C543.021 42.9884 543.629 42.3805 544.381 42.3805C545.133 42.3805 545.741 42.9884 545.741 43.7356Z" fill="#824AC2" stroke="#824AC2"/>
<path d="M558.732 43.7356C558.732 44.4828 558.125 45.0907 557.373 45.0907C556.62 45.0907 556.013 44.4828 556.013 43.7356C556.013 42.9884 556.62 42.3805 557.373 42.3805C558.125 42.3805 558.732 42.9884 558.732 43.7356Z" fill="#824AC2" stroke="#824AC2"/>
<path d="M192.74 6.26159C192.74 7.00881 192.132 7.61671 191.38 7.61671C190.628 7.61671 190.02 7.00879 190.02 6.26159C190.02 5.5144 190.628 4.90648 191.38 4.90648C192.132 4.90648 192.74 5.51438 192.74 6.26159Z" fill="#824AC2" stroke="#824AC2"/>
<path d="M205.722 6.26108C205.722 7.00828 205.114 7.6162 204.362 7.6162C203.61 7.6162 203.002 7.00828 203.002 6.26108C203.002 5.51388 203.61 4.90597 204.362 4.90597C205.114 4.90597 205.722 5.51388 205.722 6.26108Z" fill="#824AC2" stroke="#824AC2"/>
<path d="M218.713 6.26108C218.713 7.0083 218.106 7.6162 217.354 7.6162C216.601 7.6162 215.994 7.00828 215.994 6.26108C215.994 5.51388 216.601 4.90597 217.354 4.90597C218.106 4.90597 218.713 5.51386 218.713 6.26108Z" fill="#824AC2" stroke="#824AC2"/>
<path d="M192.74 19.2192C192.74 19.9665 192.132 20.5744 191.38 20.5744C190.628 20.5744 190.02 19.9664 190.02 19.2192C190.02 18.472 190.628 17.8641 191.38 17.8641C192.132 17.8641 192.74 18.472 192.74 19.2192Z" fill="#824AC2" stroke="#824AC2"/>
<path d="M205.722 19.2192C205.722 19.9664 205.114 20.5744 204.362 20.5744C203.61 20.5744 203.002 19.9664 203.002 19.2192C203.002 18.472 203.61 17.8641 204.362 17.8641C205.114 17.8641 205.722 18.472 205.722 19.2192Z" fill="#824AC2" stroke="#824AC2"/>
<path d="M218.713 19.2192C218.713 19.9665 218.106 20.5744 217.354 20.5744C216.601 20.5744 215.994 19.9664 215.994 19.2192C215.994 18.472 216.601 17.8641 217.354 17.8641C218.106 17.8641 218.713 18.472 218.713 19.2192Z" fill="#824AC2" stroke="#824AC2"/>
<path d="M649.484 205.878C649.484 206.626 648.877 207.234 648.125 207.234C647.372 207.234 646.765 206.626 646.765 205.878C646.765 205.131 647.372 204.523 648.125 204.523C648.877 204.523 649.484 205.131 649.484 205.878Z" fill="#824AC2" stroke="#824AC2"/>
<path d="M649.485 218.837C649.485 219.584 648.877 220.192 648.125 220.192C647.373 220.192 646.765 219.584 646.765 218.837C646.765 218.09 647.373 217.482 648.125 217.482C648.877 217.482 649.485 218.09 649.485 218.837Z" fill="#824AC2" stroke="#824AC2"/>
<path d="M649.485 231.785C649.485 232.533 648.877 233.14 648.125 233.14C647.373 233.14 646.765 232.533 646.765 231.785C646.765 231.038 647.373 230.43 648.125 230.43C648.877 230.43 649.485 231.038 649.485 231.785Z" fill="#824AC2" stroke="#824AC2"/>
<path d="M649.485 244.744C649.485 245.491 648.877 246.099 648.125 246.099C647.373 246.099 646.765 245.491 646.765 244.744C646.765 243.997 647.373 243.389 648.125 243.389C648.877 243.389 649.485 243.997 649.485 244.744Z" fill="#824AC2" stroke="#824AC2"/>
<path d="M649.485 257.692C649.485 258.439 648.877 259.047 648.125 259.047C647.373 259.047 646.765 258.439 646.765 257.692C646.765 256.945 647.373 256.337 648.125 256.337C648.877 256.337 649.485 256.945 649.485 257.692Z" fill="#824AC2" stroke="#824AC2"/>
<path d="M649.485 270.651C649.485 271.398 648.877 272.006 648.125 272.006C647.373 272.006 646.765 271.398 646.765 270.651C646.765 269.904 647.373 269.296 648.125 269.296C648.877 269.296 649.485 269.904 649.485 270.651Z" fill="#824AC2" stroke="#824AC2"/>
<path d="M649.485 283.599C649.485 284.346 648.877 284.954 648.125 284.954C647.373 284.954 646.765 284.346 646.765 283.599C646.765 282.852 647.373 282.244 648.125 282.244C648.877 282.244 649.485 282.852 649.485 283.599Z" fill="#824AC2" stroke="#824AC2"/>
<path d="M636.493 205.878C636.493 206.626 635.885 207.234 635.133 207.234C634.381 207.234 633.773 206.626 633.773 205.878C633.773 205.131 634.381 204.523 635.133 204.523C635.885 204.523 636.493 205.131 636.493 205.878Z" fill="#824AC2" stroke="#824AC2"/>
<path d="M636.493 218.837C636.493 219.584 635.885 220.192 635.133 220.192C634.381 220.192 633.773 219.584 633.773 218.837C633.773 218.09 634.381 217.482 635.133 217.482C635.885 217.482 636.493 218.09 636.493 218.837Z" fill="#824AC2" stroke="#824AC2"/>
<path d="M636.493 231.785C636.493 232.533 635.885 233.14 635.133 233.14C634.381 233.14 633.773 232.533 633.773 231.785C633.773 231.038 634.381 230.43 635.133 230.43C635.885 230.43 636.493 231.038 636.493 231.785Z" fill="#824AC2" stroke="#824AC2"/>
<path d="M636.493 244.744C636.493 245.491 635.885 246.099 635.133 246.099C634.381 246.099 633.773 245.491 633.773 244.744C633.773 243.997 634.381 243.389 635.133 243.389C635.885 243.389 636.493 243.997 636.493 244.744Z" fill="#824AC2" stroke="#824AC2"/>
<path d="M636.493 257.692C636.493 258.439 635.885 259.047 635.133 259.047C634.381 259.047 633.773 258.439 633.773 257.692C633.773 256.945 634.381 256.337 635.133 256.337C635.885 256.337 636.493 256.945 636.493 257.692Z" fill="#824AC2" stroke="#824AC2"/>
<path d="M636.493 270.651C636.493 271.398 635.885 272.006 635.133 272.006C634.381 272.006 633.773 271.398 633.773 270.651C633.773 269.904 634.381 269.296 635.133 269.296C635.885 269.296 636.493 269.904 636.493 270.651Z" fill="#824AC2" stroke="#824AC2"/>
<path d="M636.493 283.599C636.493 284.346 635.885 284.954 635.133 284.954C634.381 284.954 633.773 284.346 633.773 283.599C633.773 282.852 634.381 282.244 635.133 282.244C635.885 282.244 636.493 282.852 636.493 283.599Z" fill="#824AC2" stroke="#824AC2"/>
<path d="M623.511 205.878C623.511 206.626 622.903 207.234 622.151 207.234C621.399 207.234 620.791 206.626 620.791 205.878C620.791 205.131 621.399 204.523 622.151 204.523C622.903 204.523 623.511 205.131 623.511 205.878Z" fill="#824AC2" stroke="#824AC2"/>
<path d="M623.511 218.837C623.511 219.584 622.903 220.192 622.151 220.192C621.399 220.192 620.791 219.584 620.791 218.837C620.791 218.09 621.399 217.482 622.151 217.482C622.903 217.482 623.511 218.09 623.511 218.837Z" fill="#824AC2" stroke="#824AC2"/>
<path d="M623.511 231.785C623.511 232.533 622.903 233.14 622.151 233.14C621.399 233.14 620.791 232.533 620.791 231.785C620.791 231.038 621.399 230.43 622.151 230.43C622.903 230.43 623.511 231.038 623.511 231.785Z" fill="#824AC2" stroke="#824AC2"/>
<path d="M623.511 244.744C623.511 245.491 622.903 246.099 622.151 246.099C621.399 246.099 620.791 245.491 620.791 244.744C620.791 243.997 621.399 243.389 622.151 243.389C622.903 243.389 623.511 243.997 623.511 244.744Z" fill="#824AC2" stroke="#824AC2"/>
<path d="M623.511 257.692C623.511 258.439 622.903 259.047 622.151 259.047C621.399 259.047 620.791 258.439 620.791 257.692C620.791 256.945 621.399 256.337 622.151 256.337C622.903 256.337 623.511 256.945 623.511 257.692Z" fill="#824AC2" stroke="#824AC2"/>
<path d="M623.511 270.651C623.511 271.398 622.903 272.006 622.151 272.006C621.399 272.006 620.791 271.398 620.791 270.651C620.791 269.904 621.399 269.296 622.151 269.296C622.903 269.296 623.511 269.904 623.511 270.651Z" fill="#824AC2" stroke="#824AC2"/>
<path d="M623.511 283.599C623.511 284.346 622.903 284.954 622.151 284.954C621.399 284.954 620.791 284.346 620.791 283.599C620.791 282.852 621.399 282.244 622.151 282.244C622.903 282.244 623.511 282.852 623.511 283.599Z" fill="#824AC2" stroke="#824AC2"/>
<path d="M610.519 205.878C610.519 206.625 609.911 207.233 609.159 207.233C608.407 207.233 607.799 206.625 607.799 205.878C607.799 205.131 608.407 204.523 609.159 204.523C609.911 204.523 610.519 205.131 610.519 205.878Z" fill="#824AC2" stroke="#824AC2"/>
<path d="M610.519 218.837C610.519 219.584 609.911 220.192 609.159 220.192C608.407 220.192 607.799 219.584 607.799 218.837C607.799 218.09 608.407 217.482 609.159 217.482C609.911 217.482 610.519 218.09 610.519 218.837Z" fill="#824AC2" stroke="#824AC2"/>
<path d="M610.519 231.785C610.519 232.533 609.911 233.14 609.159 233.14C608.407 233.14 607.799 232.533 607.799 231.785C607.799 231.038 608.407 230.43 609.159 230.43C609.911 230.43 610.519 231.038 610.519 231.785Z" fill="#824AC2" stroke="#824AC2"/>
<path d="M610.519 244.744C610.519 245.491 609.911 246.099 609.159 246.099C608.407 246.099 607.799 245.491 607.799 244.744C607.799 243.997 608.407 243.389 609.159 243.389C609.911 243.389 610.519 243.997 610.519 244.744Z" fill="#824AC2" stroke="#824AC2"/>
<path d="M610.519 257.692C610.519 258.439 609.911 259.047 609.159 259.047C608.407 259.047 607.799 258.439 607.799 257.692C607.799 256.945 608.407 256.337 609.159 256.337C609.911 256.337 610.519 256.945 610.519 257.692Z" fill="#824AC2" stroke="#824AC2"/>
<path d="M610.519 270.651C610.519 271.398 609.911 272.006 609.159 272.006C608.407 272.006 607.799 271.398 607.799 270.651C607.799 269.904 608.407 269.296 609.159 269.296C609.911 269.296 610.519 269.904 610.519 270.651Z" fill="#824AC2" stroke="#824AC2"/>
<path d="M610.519 283.599C610.519 284.346 609.911 284.954 609.159 284.954C608.407 284.954 607.799 284.346 607.799 283.599C607.799 282.852 608.407 282.244 609.159 282.244C609.911 282.244 610.519 282.852 610.519 283.599Z" fill="#824AC2" stroke="#824AC2"/>
<path d="M498.122 283.138H160.908C154.795 283.138 149.831 278.151 149.831 271.998V64.9683C149.831 58.8155 154.795 53.8291 160.908 53.8291H498.132C504.246 53.8291 509.209 58.8155 509.209 64.9683V271.998C509.2 278.151 504.236 283.138 498.122 283.138Z" fill="#6C5DD2" stroke="#6C5DD2"/>
<path d="M497.635 273.831H161.393C156.178 273.831 151.943 269.607 151.943 264.406V65.0152C151.943 59.814 156.178 55.59 161.393 55.59H497.635C502.849 55.59 507.084 59.814 507.084 65.0152V264.406C507.084 269.617 502.849 273.831 497.635 273.831Z" fill="white"/>
<path d="M387.052 74.2422V214.92C387.052 219.164 383.608 222.598 379.354 222.598H166.993C165.084 222.598 163.332 221.907 161.987 220.753C160.344 219.341 159.295 217.259 159.295 214.92V74.2422C159.295 69.9984 162.748 66.5639 166.993 66.5639H379.354C381.263 66.5639 383.025 67.2547 384.36 68.4094C386.013 69.8207 387.052 71.9032 387.052 74.2422Z" fill="#E6E6F0"/>
<path d="M492.1 126.697H404.196C399.941 126.697 396.497 123.263 396.497 119.019V74.2417C396.497 69.9979 399.941 66.5633 404.196 66.5633H492.1C496.355 66.5633 499.798 69.9979 499.798 74.2417V119.019C499.798 123.263 496.345 126.697 492.1 126.697Z" fill="#E6E6F0"/>
<path d="M492.1 197.486H404.196C399.941 197.486 396.497 194.052 396.497 189.808V145.031C396.497 140.787 399.941 137.352 404.196 137.352H492.1C496.355 137.352 499.798 140.787 499.798 145.031V189.808C499.798 194.052 496.345 197.486 492.1 197.486Z" fill="#E6E6F0"/>
<path d="M492.1 264.559H404.196C399.941 264.559 396.497 261.124 396.497 256.881V216.367C396.497 212.123 399.941 208.689 404.196 208.689H492.1C496.355 208.689 499.798 212.123 499.798 216.367V256.881C499.798 261.124 496.345 264.559 492.1 264.559Z" fill="#E6E6F0"/>
<path d="M275.43 237.697H162.095C160.552 237.697 159.305 236.454 159.305 234.914C159.305 233.375 160.552 232.131 162.095 232.131H275.43C276.973 232.131 278.22 233.375 278.22 234.914C278.22 236.444 276.973 237.697 275.43 237.697Z" fill="#E6E6F0"/>
<path d="M281.971 263.811H162.208C160.577 263.811 159.26 262.604 159.26 261.11V250.299C159.26 248.805 160.577 247.598 162.208 247.598H281.971C283.602 247.598 284.92 248.805 284.92 250.299V261.11C284.92 262.604 283.602 263.811 281.971 263.811Z" fill="#E6E6F0"/>
<path d="M359.337 237.697H384.261C385.805 237.697 387.052 236.454 387.052 234.914C387.052 233.375 385.805 232.131 384.261 232.131H359.337C357.793 232.131 356.546 233.375 356.546 234.914C356.546 236.444 357.793 237.697 359.337 237.697Z" fill="#E6E6F0"/>
<path d="M317.057 237.697H341.981C343.525 237.697 344.772 236.454 344.772 234.914C344.772 233.375 343.525 232.131 341.981 232.131H317.057C315.513 232.131 314.266 233.375 314.266 234.914C314.256 236.444 315.513 237.697 317.057 237.697Z" fill="#E6E6F0"/>
<path d="M334.827 263.931H384.261C385.805 263.931 387.052 262.687 387.052 261.148V250.005C387.052 248.466 385.805 247.222 384.261 247.222H334.827C333.284 247.222 332.037 248.466 332.037 250.005V261.148C332.037 262.687 333.284 263.931 334.827 263.931Z" fill="#E6E6F0"/>
<g opacity="0.24">
<path d="M447.83 112.644C456.437 112.644 463.414 105.685 463.414 97.1003C463.414 88.5154 456.437 81.556 447.83 81.556C439.223 81.556 432.246 88.5154 432.246 97.1003C432.246 105.685 439.223 112.644 447.83 112.644Z" fill="#E6E6F0" stroke="#824AC2" stroke-width="2" stroke-miterlimit="10"/>
<path d="M454.216 95.5671L445.32 90.445C444.341 89.8824 443.124 90.5831 443.124 91.7082V101.953C443.124 103.078 444.341 103.778 445.32 103.216L454.216 98.0937C455.195 97.5311 455.195 96.1297 454.216 95.5671Z" fill="#E6E6F0" stroke="#824AC2" stroke-width="2" stroke-miterlimit="10"/>
</g>
<g opacity="0.24">
<path d="M447.83 182.492C456.437 182.492 463.414 175.533 463.414 166.948C463.414 158.363 456.437 151.404 447.83 151.404C439.223 151.404 432.246 158.363 432.246 166.948C432.246 175.533 439.223 182.492 447.83 182.492Z" fill="#E6E6F0" stroke="#824AC2" stroke-width="2" stroke-miterlimit="10"/>
<path d="M454.216 165.415L445.32 160.293C444.341 159.73 443.124 160.431 443.124 161.556V171.801C443.124 172.926 444.341 173.626 445.32 173.064L454.216 167.942C455.195 167.379 455.195 165.978 454.216 165.415Z" fill="#E6E6F0" stroke="#824AC2" stroke-width="2" stroke-miterlimit="10"/>
</g>
<g opacity="0.24">
<path d="M447.83 251.666C456.437 251.666 463.414 244.707 463.414 236.122C463.414 227.537 456.437 220.578 447.83 220.578C439.223 220.578 432.246 227.537 432.246 236.122C432.246 244.707 439.223 251.666 447.83 251.666Z" fill="#E6E6F0" stroke="#824AC2" stroke-width="2" stroke-miterlimit="10"/>
<path d="M454.216 234.588L445.32 229.466C444.341 228.903 443.124 229.604 443.124 230.729V240.973C443.124 242.099 444.341 242.799 445.32 242.237L454.216 237.114C455.195 236.552 455.195 235.15 454.216 234.588Z" fill="#E6E6F0" stroke="#824AC2" stroke-width="2" stroke-miterlimit="10"/>
</g>
<path d="M384.36 68.4094L161.987 220.753C160.344 219.341 159.295 217.259 159.295 214.92V74.2422C159.295 69.9984 162.748 66.5639 166.993 66.5639H379.354C381.263 66.5639 383.025 67.2547 384.36 68.4094Z" fill="#F2F2FA"/>
<mask id="mask0_2_2619" style="mask-type:alpha" maskUnits="userSpaceOnUse" x="159" y="34" width="229" height="189">
<path d="M387.33 44.2029V213.646C387.33 218.758 383.892 222.895 379.645 222.895H167.663C165.757 222.895 164.009 222.063 162.665 220.672C161.026 218.972 159.979 216.464 159.979 213.646V44.2029C159.979 39.0913 163.426 34.9544 167.663 34.9544H379.645C381.551 34.9544 383.31 35.7866 384.643 37.1774C386.292 38.8773 387.33 41.3856 387.33 44.2029Z" fill="#A3D1DE"/>
</mask>
<g mask="url(#mask0_2_2619)">
<path d="M369.42 154.609C369.42 154.609 382.115 144.612 382.451 141.75C383.084 136.361 385.024 132.137 396.64 128.564C396.64 128.564 397.54 130.281 395.928 132.147C394.166 134.17 392.771 134.881 392.771 134.881C392.771 134.881 395.848 136.055 400.43 132.482C405.011 128.92 406.94 125.821 408.87 126.58C408.87 126.58 411.146 124.528 412.224 124.853C412.224 124.853 413.016 125.09 412.867 125.939C414.658 125.663 414.292 130.814 411.106 134.999C406.525 141.019 400.806 146.201 396.126 147.908C392.613 149.191 378.097 163.926 378.097 163.926L369.42 154.609Z" fill="#FFCAD0"/>
<path d="M330.217 205.613C324.676 207.479 293.933 160.323 293.933 160.323C282.049 146.684 292.716 101.758 303.471 117.51C303.471 117.51 331.444 167.982 334.461 172.048C338.212 177.101 350.689 198.715 330.217 205.613Z" fill="#6C5DD2"/>
<path d="M295.575 252.425H214.518C214.518 252.425 208.294 249.691 213.706 237.769C215.735 233.318 214.854 221.85 214.518 206.108C213.835 174.98 204.574 123.314 216.002 117.393C222.849 113.83 237.394 109.142 247.952 105.934C248.585 105.757 249.199 105.569 249.802 105.391C255.967 103.556 260.37 102.342 260.37 102.342C260.37 102.342 265.476 103.082 275.845 106.142C276.409 106.309 276.993 106.487 277.597 106.665C280.298 107.484 283.306 108.441 286.65 109.576C304.777 115.725 302.739 113.534 305.143 136.115C307.063 154.146 295.575 252.425 295.575 252.425Z" fill="#6C5DD2"/>
<path d="M277.596 106.655C277.359 110.484 275.637 113.869 273.015 116.346C270.354 118.883 266.742 120.422 262.804 120.422C254.68 120.422 248.11 113.938 247.942 105.934C248.575 105.757 249.189 105.569 249.792 105.391C255.957 103.556 260.36 102.342 260.36 102.342C260.36 102.342 265.466 103.082 275.835 106.142C276.399 106.299 276.993 106.477 277.596 106.655Z" fill="#F2F2FA"/>
<path d="M275.816 74.3332L274.539 98.9276L274.173 105.945C274.025 108.925 272.709 111.58 270.67 113.495C268.652 115.409 265.921 116.574 262.933 116.574C256.61 116.574 251.514 111.373 251.682 105.076L251.999 92.552L252.533 71.7474L275.816 74.3332Z" fill="#FBD5D9"/>
<path d="M275.816 79.2471L274.539 102.41C263.616 102.845 255.65 98.4233 251.999 92.5214L252.533 76.6811L275.816 79.2471Z" fill="#FFA4AD"/>
<path d="M245.281 50.2516C245.281 50.2516 234.812 48.9489 236.009 62.0356C236.939 72.1813 250.762 85.722 250.762 85.722C250.762 85.722 259.489 55.1468 245.281 50.2516Z" fill="#8F4A3F"/>
<path d="M288.036 59.6757C287.323 61.2943 286.225 62.7056 285.324 64.2255C284.434 65.7454 283.722 67.4824 283.919 69.2391C283.741 66.3869 281.851 63.9886 280.219 61.6496C278.586 59.3007 277.102 56.4583 277.884 53.7146C278.626 51.0795 283.405 46.9245 286.314 48.6319C289.55 50.5268 289.302 56.8037 288.036 59.6757Z" fill="#0E1235"/>
<path d="M284.483 60.1989C284.483 60.1989 285.295 68.2128 284.167 77.0854C282.861 87.3396 283.326 99.3802 268.177 100.19C252.009 101.048 246.656 82.9971 246.656 82.9971C246.656 82.9971 238.067 81.3983 237.483 75.6149C236.9 69.8216 242.896 69.4959 244.855 71.1243C244.855 71.1243 247.071 49.54 267.069 49.54C284.711 49.5203 284.483 60.1989 284.483 60.1989Z" fill="#FBD5D9"/>
<path d="M265.485 76.6703C265.485 77.5485 264.773 78.2688 263.882 78.2688C262.992 78.2688 262.28 77.5583 262.28 76.6703C262.28 75.792 262.992 75.0717 263.882 75.0717C264.773 75.0717 265.485 75.792 265.485 76.6703Z" fill="#9A5449"/>
<path d="M279.971 76.6703C279.971 77.5485 279.259 78.2688 278.368 78.2688C277.478 78.2688 276.766 77.5583 276.766 76.6703C276.766 75.792 277.478 75.0717 278.368 75.0717C279.259 75.0717 279.971 75.792 279.971 76.6703Z" fill="#9A5449"/>
<path d="M258.055 71.1151C258.055 71.1151 260.429 67.2167 265.486 68.6181" stroke="#561E15" stroke-width="1.0274" stroke-miterlimit="10" stroke-linecap="round" stroke-linejoin="round"/>
<path d="M274.203 68.5585C274.203 68.5585 277.854 65.2325 281.446 68.8743" stroke="#561E15" stroke-width="1.0274" stroke-miterlimit="10" stroke-linecap="round" stroke-linejoin="round"/>
<path d="M270.997 72.516C270.997 72.516 272.729 76.9276 274.203 79.6713C275.677 82.4149 271.323 83.6387 271.323 83.6387" stroke="#D66D78" stroke-width="0.7706" stroke-miterlimit="10" stroke-linecap="round" stroke-linejoin="round"/>
<path d="M265.199 88.5731C265.199 88.5731 268.771 92.0274 273.362 89.9154" stroke="#D66D78" stroke-width="0.7706" stroke-miterlimit="10" stroke-linecap="round" stroke-linejoin="round"/>
<path d="M244.567 77.4705C244.567 77.4705 244.518 72.5071 240.798 73.859" stroke="#D66D78" stroke-width="0.7706" stroke-miterlimit="10" stroke-linecap="round" stroke-linejoin="round"/>
<path d="M249.476 54.3963C249.476 54.3963 258.569 63.634 253.592 67.1672C248.051 71.1051 247.19 76.6714 247.19 76.6714C247.19 76.6714 247.309 74.7074 244.845 71.115C242.381 67.5127 237.008 54.7417 249.476 54.3963Z" fill="#8F4A3F"/>
<path d="M330.217 205.615C336.827 209.908 387.062 156.387 387.062 156.387L378.147 144.751C378.147 144.751 339.953 168.655 334.462 172.05C326.546 176.935 307.983 191.186 330.217 205.615Z" fill="#6C5DD2"/>
<path d="M303.501 174.497C303.501 174.497 305.747 150.031 305.361 142.263C305.361 142.263 308.557 162.802 308.636 181.78L303.501 174.497Z" fill="#282B30"/>
<path d="M218.614 166.156C218.614 166.156 230.379 115.912 217.793 116.504C217.793 116.504 213.687 116.997 205.652 129.433C200.032 138.127 193.877 153.198 182.657 177.713C177.353 189.3 170.724 204.982 183.033 205.821C189.692 206.275 196.678 202.643 200.794 195.014C208.334 181.039 218.614 166.156 218.614 166.156Z" fill="#6C5DD2"/>
<path d="M229.142 228.699L293.171 213.648C293.161 213.648 273.025 228.699 229.142 228.699Z" fill="#282B30"/>
<path d="M211.945 176.253C211.945 176.253 222.275 158.004 227.767 149.102L214.874 218.908C214.874 218.908 213.617 190.396 211.945 176.253Z" fill="#282B30"/>
<path d="M253.117 200.027L214.825 217.861L216.794 199.524L253.117 200.027Z" fill="#282B30"/>
<path d="M259.348 196.97L259.348 196.97L265.67 162.536L265.671 162.535C266.003 160.703 267.604 159.373 269.483 159.373H282.92C285.341 159.373 287.17 161.559 286.732 163.934L286.732 163.934L280.41 198.367C280.41 198.368 280.41 198.368 280.41 198.368C280.068 200.203 278.464 201.531 276.597 201.531H263.16C260.739 201.531 258.91 199.345 259.348 196.97Z" fill="#6C5DD2" stroke="#6C5DD2"/>
<path d="M278.259 203.492H264.822C262.091 203.492 260.023 201.025 260.518 198.34L266.841 163.906C267.217 161.833 269.027 160.333 271.145 160.333H284.582C287.313 160.333 289.381 162.801 288.886 165.485L282.563 199.919C282.187 201.992 280.377 203.492 278.259 203.492Z" fill="white"/>
<path d="M268.233 172.528L268.233 172.523L269.777 164.115L269.777 164.115L269.778 164.111C269.804 163.961 269.938 163.843 270.106 163.843H272.511C272.726 163.843 272.88 164.035 272.841 164.236L272.84 164.24L271.297 172.649L271.297 172.649L271.296 172.653C271.27 172.802 271.136 172.92 270.967 172.92H268.563C268.348 172.92 268.194 172.728 268.233 172.528Z" fill="#6C5DD2" stroke="#6C5DD2"/>
<path d="M240.492 184.869C240.492 184.869 247.042 184.652 252.059 183.122C254.216 182.461 258.49 181.691 259.905 179.648C261.33 177.585 261.201 173.134 262.626 172.947C263.724 172.799 265.921 176.283 265.357 178.632C264.803 180.931 264.536 182.204 263.695 183.231C263.418 183.576 272.649 184.227 278.497 182.944C282.505 182.066 281.317 186.024 278.596 187.267C278.596 187.267 279.566 189.685 276.726 190.504C276.726 190.504 276.756 193.732 274.045 193.88C273.738 194.63 273.213 196.229 270.868 196.801C267.455 197.64 262.3 197.956 257.105 197.492C254.463 197.255 242.273 199.387 242.273 199.387L240.492 184.869Z" fill="#FFCAD0"/>
<path d="M182.637 206.008C191.988 207.637 247.725 201.36 247.725 201.36L246.339 181.907C246.339 181.907 200.923 184.019 194.867 183.476C174.84 181.71 171.001 203.985 182.637 206.008Z" fill="#6C5DD2"/>
<path d="M251.682 39.7308C252.642 38.7735 253.711 37.7569 255.057 37.6089C256.402 37.4609 257.936 38.7143 257.491 39.9973C262.072 38.0135 266.861 36.5331 271.759 35.5857C272.986 35.3488 274.312 35.1514 275.45 35.6942C276.578 36.2371 277.28 37.8063 276.508 38.7833C278.883 39.6716 281.515 39.0893 284.038 38.7932C286.561 38.4971 289.441 38.6254 291.152 40.4907C292.745 42.2179 292.775 44.8234 292.726 47.1723C292.647 50.3897 292.567 53.6269 291.835 56.7653C290.747 61.4039 288.214 65.6872 284.661 68.875C285.72 65.2628 283.83 61.2559 280.852 58.9366C277.884 56.6074 274.054 55.6895 270.304 55.2652C265.812 54.752 261.241 54.8704 256.768 55.6007C253.394 56.1534 248.575 58.5517 245.221 57.0318C237.79 53.6762 248.813 42.5929 251.682 39.7308Z" fill="#8F4A3F"/>
</g>
<path d="M366.55 81.319H320.025C316.463 81.319 313.574 78.4372 313.574 74.8842V55.4219C313.574 51.8689 316.463 48.9871 320.025 48.9871H366.55C370.112 48.9871 373.001 51.8689 373.001 55.4219V74.8842C373.001 78.4372 370.112 81.319 366.55 81.319Z" fill="#6C5DD2"/>
<path d="M323.528 79.226V88.0887L333.046 78.5944L323.528 79.226Z" fill="#6C5DD2"/>
<path d="M327.238 68.8536C329.287 68.8536 330.949 67.1966 330.949 65.1526C330.949 63.1086 329.287 61.4516 327.238 61.4516C325.189 61.4516 323.528 63.1086 323.528 65.1526C323.528 67.1966 325.189 68.8536 327.238 68.8536Z" fill="#E6E6F0"/>
<path d="M343.287 68.8538C345.337 68.8538 346.998 67.1968 346.998 65.1528C346.998 63.1088 345.337 61.4518 343.287 61.4518C341.238 61.4518 339.577 63.1088 339.577 65.1528C339.577 67.1968 341.238 68.8538 343.287 68.8538Z" fill="#E6E6F0"/>
<path d="M359.337 68.8538C361.386 68.8538 363.047 67.1968 363.047 65.1528C363.047 63.1088 361.386 61.4518 359.337 61.4518C357.288 61.4518 355.626 63.1088 355.626 65.1528C355.626 67.1968 357.288 68.8538 359.337 68.8538Z" fill="#E6E6F0"/>
<path d="M494.528 344.747L492.42 370.319H503.354L509.034 344.747H494.528Z" fill="#FEC9CF"/>
<path d="M504.542 364.97C504.542 364.97 509.291 372.619 505.729 373.981C502.167 375.343 478.716 375.461 472.928 374.602C467.14 373.734 485.841 365.829 490.115 364.585C494.4 363.341 495.775 369.826 504.542 364.97Z" fill="#824AC2"/>
<path d="M552.016 344.748L554.114 370.32H543.18L537.511 344.748H552.016Z" fill="#FEC9CF"/>
<path d="M541.993 364.971C541.993 364.971 537.244 372.62 540.806 373.982C544.368 375.343 567.818 375.462 573.607 374.603C579.395 373.735 560.694 365.829 556.42 364.586C552.145 363.342 550.76 369.827 541.993 364.971Z" fill="#824AC2"/>
<path d="M492.332 204.929L487.374 358.249H510.459L515.436 256.131L535.215 361.181L560.358 357.006C560.358 357.006 537.659 242.413 533.8 204.939H492.332V204.929Z" fill="#D8D8E3"/>
<path d="M514.365 263.87L513.502 245.669L514.933 256.138L514.365 263.87Z" fill="#194248" stroke="#C9C9D4"/>
<path d="M526.379 204.929L553.095 357.864" stroke="#C9C9D4" stroke-miterlimit="10" stroke-linecap="round" stroke-linejoin="round"/>
<path d="M520.818 91.9155C525.746 91.9253 530.98 94.5012 532.643 99.13C533.929 102.693 532.959 106.897 534.76 110.233C536.086 112.7 538.738 114.289 539.935 116.816C542.409 122.066 537.59 128.304 539.124 133.89C540.539 139.061 546.96 142.022 547.495 147.361C547.841 150.766 545.437 154.033 542.339 155.514C539.252 157.004 535.631 156.994 532.247 156.431C523.945 155.04 516.128 150.5 507.718 150.934C504.255 151.112 500.633 152.118 497.427 150.786C495.142 149.839 493.489 147.835 492.035 145.842C490.363 143.552 488.76 140.946 488.918 138.124C489.146 133.979 492.915 131.077 495.171 127.593C497.477 124.03 498.447 119.579 497.803 115.385C494.746 95.4487 505.986 96.0606 507.421 96.031C508.737 96.0014 513.111 93.3268 514.842 92.8234C516.801 92.2609 518.8 91.9155 520.818 91.9155Z" fill="#D38D00"/>
<path d="M468.01 175.559C463.251 171.779 443.897 159.008 443.709 157.222C443.353 153.866 442.175 151.211 434.962 148.922C434.962 148.922 434.388 149.987 435.387 151.162C436.466 152.435 437.337 152.879 437.337 152.879C437.337 152.879 435.417 153.59 432.587 151.34C429.757 149.089 428.58 147.145 427.373 147.609C427.373 147.609 425.968 146.316 425.295 146.513C425.295 146.513 424.8 146.652 424.889 147.185C423.771 146.997 423.969 150.205 425.918 152.84C428.728 156.62 433.686 159.502 436.595 160.597C438.771 161.416 453.049 182.477 462.618 184.757C465.368 185.389 470.227 177.316 468.01 175.559Z" fill="#FCDDC6"/>
<path d="M482.981 156.876C482.981 156.876 461.589 171.759 459.521 175.46C457.453 179.161 458.996 189.041 468.525 182.695C478.053 176.349 493.093 164.831 493.093 164.831L482.981 156.876Z" fill="#FCDDC6"/>
<path d="M493.974 143.326C493.974 143.326 488.097 144.807 484.178 149.455C480.893 153.354 475.6 159.631 475.6 159.631L491.827 172.204C491.837 172.194 495.795 149.337 493.974 143.326Z" fill="#47248F"/>
<path d="M533.8 204.929H492.322C492.322 204.929 492.49 197.833 490.184 186.809C487.869 175.795 489.027 170.031 491.332 164.277C493.647 158.524 489.521 145.22 493.974 143.325C495.785 142.555 498.931 141.311 502.018 140.117C502.8 139.821 503.572 139.515 504.314 139.229C507.896 137.847 510.914 136.702 510.914 136.702H518.384C518.384 136.702 523.529 138.4 528.813 140.502C529.506 140.779 530.208 141.065 530.901 141.351C530.901 141.361 530.901 141.361 530.901 141.361C533.563 142.476 536.106 143.651 537.837 144.726C543.448 148.181 533.8 204.929 533.8 204.929Z" fill="#824AC2"/>
<path d="M508.4 118.394L509.192 133.712L509.42 138.084C509.518 139.939 510.33 141.597 511.596 142.791C512.853 143.985 514.555 144.706 516.415 144.706C520.353 144.706 523.52 141.469 523.421 137.551L523.223 129.754L522.886 116.795L508.4 118.394Z" fill="#FFDFC8"/>
<path d="M508.4 118.394L509.192 132.823C515.99 133.1 520.957 130.336 523.233 126.665L522.896 116.795L508.4 118.394Z" fill="#DA9F74"/>
<path d="M502.998 106.532C502.998 106.532 502.493 111.526 503.196 117.043C504.007 123.429 504.72 130.742 513.16 131.433C523.213 132.252 526.567 120.725 526.567 120.725C526.567 120.725 531.237 119.639 531.811 116.461C532.385 113.273 528.902 112.316 527.685 113.323C527.685 113.323 526.3 99.8804 513.852 99.8804C502.85 99.8804 502.998 106.532 502.998 106.532Z" fill="#FFDFC8"/>
<path d="M530.901 141.351C530.901 141.361 530.901 141.361 530.901 141.351C522.392 151.694 512.359 151.21 512.359 151.21C504.443 149.483 502.019 140.117 502.019 140.117C502.8 139.821 503.572 139.515 504.314 139.229C507.896 137.847 510.914 136.702 510.914 136.702H518.384C518.384 136.702 523.53 138.4 528.813 140.502C529.506 140.779 530.209 141.065 530.901 141.351Z" fill="#6C5DD2"/>
<path d="M528.813 140.502C520.135 149.908 512.616 148.921 512.616 148.921C504.532 145.832 504.314 139.229 504.314 139.229C507.896 137.847 510.914 136.702 510.914 136.702H518.384C518.384 136.702 523.529 138.4 528.813 140.502Z" fill="#FCDDC6"/>
<path d="M507.332 96.9781C507.332 96.9781 508.489 106.699 502.226 109.907C502.226 109.907 499.089 98.1328 507.332 96.9781Z" fill="#D38D00"/>
<path d="M505.432 97.907C505.432 97.907 507.658 106.375 513.179 106.868C518.701 107.362 517.721 111.823 522.609 112.336C525.518 112.642 526.814 115.662 526.814 115.662C526.814 115.662 527.24 112.662 529.872 111.596C532.524 110.53 523.648 88.1167 505.432 97.907Z" fill="#D38D00"/>
<path d="M514.802 118.287C514.802 118.82 515.228 119.245 515.762 119.245C516.296 119.245 516.722 118.82 516.722 118.287C516.722 117.755 516.296 117.33 515.762 117.33C515.238 117.33 514.802 117.764 514.802 118.287Z" fill="#60423D"/>
<path d="M506.116 118.286C506.116 118.819 506.541 119.244 507.075 119.244C507.61 119.244 508.035 118.819 508.035 118.286C508.035 117.754 507.6 117.329 507.075 117.329C506.541 117.329 506.116 117.763 506.116 118.286Z" fill="#60423D"/>
<path d="M519.264 114.951C519.264 114.951 517.84 112.612 514.802 113.451" stroke="#561E15" stroke-miterlimit="10" stroke-linecap="round" stroke-linejoin="round"/>
<path d="M509.577 113.421C509.577 113.421 507.381 111.428 505.234 113.609" stroke="#561E15" stroke-miterlimit="10" stroke-linecap="round" stroke-linejoin="round"/>
<path d="M511.497 115.798C511.497 115.798 510.458 118.443 509.577 120.092C508.697 121.74 511.309 122.47 511.309 122.47" stroke="#DA9F74" stroke-width="0.75" stroke-miterlimit="10" stroke-linecap="round" stroke-linejoin="round"/>
<path d="M517.255 124.346C517.255 124.346 515.564 126.803 512.616 126.102" stroke="#DA9F74" stroke-width="0.75" stroke-miterlimit="10" stroke-linecap="round" stroke-linejoin="round"/>
<path d="M527.656 117.615C527.656 117.615 527.685 114.635 529.911 115.454" stroke="#DA9F74" stroke-width="0.75" stroke-miterlimit="10" stroke-linecap="round" stroke-linejoin="round"/>
<path d="M493.173 195.08H455.177C454.425 195.08 453.812 194.468 453.812 193.718C453.812 192.968 454.425 192.356 455.177 192.356H493.173C493.925 192.356 494.538 192.968 494.538 193.718C494.528 194.478 493.925 195.08 493.173 195.08Z" fill="#6C5DD2"/>
<path d="M450.863 162.894L450.863 162.894L450.862 162.892C450.626 161.958 451.343 161.037 452.317 161.037H486.543C487.236 161.037 487.834 161.505 487.996 162.166L487.997 162.168L495.382 191.866H458.071L450.863 162.894Z" fill="#6C5DD2" stroke="#6C5DD2"/>
<path d="M493.39 192.367H455.048L447.746 163.015C447.429 161.762 448.389 160.538 449.685 160.538H483.911C484.831 160.538 485.633 161.16 485.851 162.048L493.39 192.367Z" fill="white"/>
<path d="M522.58 195.08H493.826C493.123 195.08 492.549 194.507 492.549 193.807V193.639C492.549 192.938 493.123 192.366 493.826 192.366H522.58C523.282 192.366 523.856 192.938 523.856 193.639V193.807C523.866 194.517 523.292 195.08 522.58 195.08Z" fill="#6C5DD2"/>
<path d="M471.501 174.77L471.502 174.771C472.148 176.441 471.55 177.993 470.491 178.408C469.436 178.812 467.946 178.058 467.299 176.384C466.652 174.711 467.253 173.153 468.308 172.748C469.365 172.343 470.854 173.089 471.501 174.77Z" fill="#6C5DD2" stroke="#6C5DD2"/>
<path d="M535.898 192.365L533.405 160.132L538.194 173.702L535.898 192.365Z" fill="#47248F"/>
<path d="M536.224 163.41C536.224 163.41 542.141 195.13 543.606 200.321C544.556 203.677 551.462 205.967 553.629 201.525C554.104 200.548 553.995 198.92 553.946 197.262C553.609 187.008 546.416 160.913 546.416 160.913L536.224 163.41Z" fill="#FCDDC6"/>
<path d="M537.847 144.726C537.847 144.726 541.38 146.532 544.348 151.635C547.317 156.737 551.413 165.738 551.156 167.919C549.612 172.114 537.422 176.456 537.422 176.456C537.422 176.456 529.278 149.76 537.847 144.726Z" fill="#824AC2"/>
<path d="M544.684 194.191C544.684 194.191 525.894 193.777 522.332 191.665C517.504 188.793 516.385 190.036 513.585 189.345C509.093 188.23 509.588 189.138 509.588 189.138C509.588 189.138 509.796 191.734 513.269 192.059C515.02 192.227 517.642 192.967 517.088 193.392C517.088 193.392 503.156 194.842 500.356 195.089C497.556 195.336 498.921 197.487 501.059 197.981C501.059 197.981 502.335 199.59 504.403 199.096C504.403 199.096 503.948 200.004 509.311 200.004C514.674 200.004 520.056 197.162 522.777 198.395C525.498 199.629 540.192 205.304 549.513 203.991C553.966 203.36 553.995 201.228 553.995 198.978C553.995 195.079 551.106 194.586 544.684 194.191Z" fill="#FCDDC6"/>
<path d="M154.852 344.748L148.648 370.32H137.714L140.346 344.748H154.852Z" fill="#A67A62"/>
<path d="M136.528 364.971C136.528 364.971 131.778 372.619 135.34 373.981C138.902 375.343 162.353 375.462 168.141 374.603C173.93 373.735 155.229 365.829 150.954 364.586C146.679 363.342 145.294 369.826 136.528 364.971Z" fill="#824AC2"/>
<path d="M120.418 344.748L116.668 370.32H105.734L105.913 344.748H120.418Z" fill="#A67A62"/>
<path d="M104.548 364.971C104.548 364.971 99.7984 372.619 103.361 373.981C106.923 375.343 130.373 375.462 136.161 374.603C141.95 373.735 123.249 365.829 118.974 364.586C114.7 363.342 113.315 369.826 104.548 364.971Z" fill="#824AC2"/>
<path d="M102.044 221.076L102.856 357.53H120.211L132.471 257.277L146.442 297.959L135.983 357.54H154.862C154.862 357.54 171.456 306.051 170.783 295.945C170.11 285.829 150.954 216.921 150.954 216.921L102.044 221.076Z" fill="#D8D8E3"/>
<path d="M135.644 265.015L132.969 257.218L134.216 244.601L135.644 265.015Z" fill="#C9C9D4" stroke="#C9C9D4"/>
<path d="M111.841 219.429L110.841 357.541" stroke="#C9C9D4" stroke-miterlimit="10"/>
<path d="M164.985 158.583C164.985 158.583 176.195 179.733 176.443 186.227C176.69 192.721 169.516 191.27 165.806 185.418C162.095 179.555 156.159 162.936 156.159 162.936L164.985 158.583Z" fill="#A67A62"/>
<path d="M167.082 160.351C167.082 160.351 163.867 166.055 156.159 169.539C154.565 170.259 153.22 168.355 152.22 166.094C151.063 163.459 150.39 160.351 150.39 160.351C150.39 160.351 141.554 133.082 149.341 134.059C149.341 134.059 155.971 134.522 160.839 144.096C162.115 146.593 164.104 151.626 165.766 156.403C166.241 157.765 166.686 159.097 167.082 160.351Z" fill="#47248F"/>
<path d="M167.082 160.35C167.082 160.35 163.867 166.054 156.159 169.538C154.566 170.259 153.22 168.354 152.22 166.094C155.238 164.742 160.948 161.702 165.766 156.402C166.241 157.764 166.687 159.097 167.082 160.35Z" fill="#6C5DD2"/>
<path d="M151.35 218.41C146.452 223.957 114.205 223.138 102.035 221.075C99.8973 220.71 97.7897 219.891 101.164 212.469C102.43 209.696 101.886 202.56 101.668 192.75C101.243 173.357 95.4743 141.183 102.589 137.492C106.853 135.271 115.907 132.35 122.487 130.356C122.883 130.247 123.269 130.129 123.645 130.011C127.484 128.866 130.225 128.106 130.225 128.106C130.225 128.106 133.401 128.57 139.862 130.474C140.208 130.573 140.584 130.692 140.96 130.8C142.642 131.313 144.513 131.906 146.6 132.616C150.647 133.988 153.616 134.827 154.338 136.169C156.267 139.692 155.525 145.94 155.644 154.941C155.802 166.241 155.684 213.515 151.35 218.41Z" fill="#824AC2"/>
<path d="M100.154 170.791L107.11 153.875L102.044 197.389L100.154 170.791Z" fill="#47248F"/>
<path d="M140.96 130.811C140.812 133.199 139.733 135.301 138.111 136.841C136.448 138.42 134.202 139.377 131.758 139.377C126.702 139.377 122.606 135.341 122.507 130.347C122.902 130.238 123.288 130.12 123.664 130.001C127.503 128.857 130.244 128.097 130.244 128.097C130.244 128.097 133.42 128.561 139.882 130.465C140.218 130.594 140.584 130.702 140.96 130.811Z" fill="#6C5DD2"/>
<path d="M145.177 93.5774C145.177 93.5774 141.513 90.0849 135.969 89.254C127.86 88.0386 117.183 90.6703 115.056 103.018C113.374 110.134 122.071 121.829 125.356 121.148C125.356 121.148 154.927 102.478 145.177 93.5774Z" fill="#43302D"/>
<path d="M139.852 110.688L139.06 126.006L138.833 130.378C138.744 132.233 137.923 133.891 136.656 135.085C135.399 136.28 133.698 137 131.837 137C127.899 137 124.733 133.763 124.832 129.845L125.03 122.048L125.366 109.09L139.852 110.688Z" fill="#A67A62"/>
<path d="M139.852 113.738L139.061 128.167C132.263 128.443 127.296 125.68 125.02 122.009L125.356 112.139L139.852 113.738Z" fill="#765441"/>
<path d="M145.245 101.874C145.245 101.874 145.749 106.868 145.047 112.385C144.236 118.77 144.523 126.271 135.083 126.774C125.01 127.307 121.676 116.066 121.676 116.066C121.676 116.066 116.323 115.069 115.956 111.467C115.59 107.865 119.331 107.657 120.548 108.664C120.548 108.664 121.933 95.2219 134.38 95.2219C145.393 95.2318 145.245 101.874 145.245 101.874Z" fill="#A67A62"/>
<path d="M133.727 111.524C133.727 112.077 133.282 112.521 132.728 112.521C132.174 112.521 131.729 112.077 131.729 111.524C131.729 110.972 132.174 110.527 132.728 110.527C133.272 110.527 133.727 110.972 133.727 111.524Z" fill="#60423D"/>
<path d="M143.354 111.012C143.354 111.564 142.909 112.008 142.355 112.008C141.801 112.008 141.356 111.564 141.356 111.012C141.356 110.459 141.801 110.015 142.355 110.015C142.909 110.015 143.354 110.459 143.354 111.012Z" fill="#60423D"/>
<path d="M128.79 108.675C128.79 108.675 130.264 106.247 133.42 107.125" stroke="#43302D" stroke-miterlimit="10" stroke-linecap="round" stroke-linejoin="round"/>
<path d="M138.843 107.084C138.843 107.084 141.118 105.012 143.354 107.282" stroke="#43302D" stroke-miterlimit="10" stroke-linecap="round" stroke-linejoin="round"/>
<path d="M136.854 109.55C136.854 109.55 137.933 112.294 138.853 114.011C139.773 115.719 137.052 116.479 137.052 116.479" stroke="#765441" stroke-width="0.75" stroke-miterlimit="10" stroke-linecap="round" stroke-linejoin="round"/>
<path d="M133.232 119.549C133.232 119.549 135.458 121.701 138.317 120.388" stroke="#765441" stroke-width="0.75" stroke-miterlimit="10" stroke-linecap="round" stroke-linejoin="round"/>
<path d="M120.389 112.63C120.389 112.63 120.359 109.541 118.044 110.38" stroke="#765441" stroke-width="0.75" stroke-miterlimit="10" stroke-linecap="round" stroke-linejoin="round"/>
<path d="M123.447 98.2616C123.447 98.2616 129.106 104.015 126.009 106.216C122.566 108.664 122.022 112.138 122.022 112.138C122.022 112.138 122.091 110.914 120.557 108.674C119.024 106.433 115.679 98.4787 123.447 98.2616Z" fill="#43302D"/>
<path d="M92.4565 159.718C92.4565 159.718 81.2458 180.868 80.9984 187.362C80.7511 193.856 87.9247 192.405 91.6352 186.552C95.3457 180.69 101.283 164.07 101.283 164.07L92.4565 159.718Z" fill="#A67A62"/>
<path d="M172.396 179.074C172.396 179.074 155.683 166.737 154.734 166.036C153.121 164.832 150.766 163.085 149.915 162.493C148.569 161.556 140.703 160.194 139.605 160.371C138.516 160.549 135.498 161.062 134.618 161.388C133.737 161.714 134.845 162.839 135.716 163.372C136.587 163.905 140.446 165.898 143.721 166.5C145.541 166.836 147.105 167.754 148.381 168.672C149.4 169.402 167.033 187.334 167.696 187.769L172.396 179.074Z" fill="#A67A62"/>
<path d="M151.706 163.934C151.706 163.934 145.413 158.062 144.473 158.151C143.543 158.24 144.206 159.562 146.679 161.566C147.52 162.247 148.421 163.322 149.173 163.678C150.647 164.369 151.706 163.934 151.706 163.934Z" fill="#A67A62"/>
<path d="M146.64 185.129L146.643 185.128C147.217 185.063 147.692 184.649 147.838 184.088L147.838 184.088L153.32 163.066L146.64 185.129ZM146.64 185.129L123.695 187.863M146.64 185.129L123.695 187.863M127.641 165.095L127.641 165.095L122.159 186.116L127.641 165.095ZM127.641 165.095C127.787 164.533 128.262 164.12 128.836 164.054L128.836 164.054M127.641 165.095L128.836 164.054M128.836 164.054L128.839 164.054M128.836 164.054L128.839 164.054M128.839 164.054L151.784 161.32M128.839 164.054L151.784 161.32M123.695 187.863L123.694 187.863C122.705 187.979 121.912 187.066 122.159 186.117L123.695 187.863ZM151.784 161.32C151.784 161.32 151.784 161.32 151.785 161.32M151.784 161.32L151.785 161.32M151.785 161.32C152.774 161.203 153.566 162.117 153.32 163.066L151.785 161.32Z" fill="#6C5DD2" stroke="#6C5DD2"/>
<path d="M147.719 186.328L124.773 189.062C123.437 189.22 122.359 187.986 122.695 186.693L128.177 165.671C128.375 164.911 129.018 164.349 129.8 164.26L152.745 161.526C154.081 161.368 155.16 162.602 154.823 163.895L149.342 184.917C149.144 185.667 148.501 186.229 147.719 186.328Z" fill="white"/>
<path d="M130.106 169.904L130.106 169.904L130.105 169.909C130.102 169.921 130.094 169.938 130.074 169.955C130.056 169.971 130.032 169.984 130.004 169.989L128.91 170.116L128.91 170.116C128.83 170.125 128.77 170.05 128.788 169.98L128.789 169.979L129.867 165.855L129.867 165.855L129.869 165.845C129.878 165.808 129.91 165.777 129.956 165.771L131.063 165.643L131.063 165.643C131.143 165.633 131.203 165.709 131.185 165.779L131.185 165.779L130.106 169.904Z" fill="#6C5DD2" stroke="#6C5DD2"/>
<path d="M85.2827 181.106C92.2881 181.382 114.185 180.928 117.084 179.941C118.331 179.517 121.398 178.875 122.18 177.661C122.972 176.428 123.644 174.552 124.466 174.414C125.099 174.306 124.951 176.339 124.763 177.079C124.406 178.411 124.169 179.102 123.694 179.714C123.536 179.921 128.928 180.691 132.312 179.832C134.637 179.24 134.202 181.096 132.639 181.875C132.639 181.875 133.262 183.494 131.62 184.027C131.62 184.027 131.907 185.823 130.323 185.961C130.155 186.405 129.66 187.205 128.295 187.59C126.316 188.142 122.883 188.133 120.27 188.241C118.727 188.3 88.8942 192.949 83.6204 191.626C81.4237 191.074 83.0069 181.017 85.2827 181.106Z" fill="#A67A62"/>
<path d="M105.389 162.56C105.389 162.56 104.874 164.505 104.112 166.508C103.261 168.719 102.104 170.989 100.966 170.782C100.966 170.782 85.4905 165.906 86.005 164.327C86.3909 163.153 87.0538 161.623 87.8751 159.925C90.4378 154.616 94.5045 147.687 96.1471 145.003C101.747 135.834 104.043 136.999 104.043 136.999C111.89 136.624 105.389 162.56 105.389 162.56Z" fill="#824AC2"/>
<path d="M104.112 166.509C103.261 168.72 102.104 170.99 100.966 170.782C100.966 170.782 85.4905 165.907 86.005 164.328C86.3909 163.153 87.0538 161.624 87.8751 159.926C90.7248 161.268 98.413 164.792 104.112 166.509Z" fill="#6C5DD2"/>
<path d="M109.02 209.725C109.02 209.725 134.746 205.61 148.599 197.389C148.599 197.389 133.104 212.854 109.02 209.725Z" fill="#47248F"/>
<path d="M429.866 307.52H362.968C359.673 307.52 357.011 304.856 357.011 301.579V269.336C357.011 266.049 359.683 263.395 362.968 263.395H429.866C433.161 263.395 435.823 266.059 435.823 269.336V301.569C435.833 304.856 433.161 307.52 429.866 307.52Z" fill="#824AC2"/>
<path d="M364.105 296.121C370.339 296.121 370.339 288.719 376.573 288.719C382.806 288.719 382.806 278.85 389.04 278.85C395.274 278.85 395.274 282.63 401.507 282.63C407.741 282.63 407.741 273.501 413.975 273.501C420.208 273.501 420.208 287.821 426.442 287.821" stroke="white" stroke-miterlimit="10" stroke-linecap="round" stroke-linejoin="round"/>
<path d="M365.926 296.121C365.926 295.124 365.115 294.315 364.115 294.315C363.116 294.315 362.305 295.124 362.305 296.121C362.305 297.117 363.116 297.927 364.115 297.927C365.115 297.927 365.926 297.117 365.926 296.121Z" fill="white"/>
<path d="M428.262 287.83C428.262 286.834 427.451 286.025 426.452 286.025C425.453 286.025 424.642 286.834 424.642 287.83C424.642 288.827 425.453 289.636 426.452 289.636C427.451 289.636 428.262 288.827 428.262 287.83Z" fill="white"/>
<path d="M42.9927 74.7135H109.812C114.284 74.7135 117.915 71.0915 117.915 66.6305V46.2898C117.915 41.8289 114.284 38.2068 109.812 38.2068H42.9927C38.5203 38.2068 34.8889 41.8289 34.8889 46.2898V66.6305C34.8889 71.1014 38.5203 74.7135 42.9927 74.7135Z" fill="#824AC2"/>
<path d="M107.961 72.6211V81.4838L98.4326 71.9895L107.961 72.6211Z" fill="#824AC2"/>
<path d="M42.5671 47.1683H61.09" stroke="white" stroke-miterlimit="10" stroke-linecap="round" stroke-linejoin="round"/>
<path d="M67.6898 47.1687H110.237" stroke="white" stroke-miterlimit="10" stroke-linecap="round" stroke-linejoin="round"/>
<path d="M42.5671 56.468H77.0997" stroke="white" stroke-miterlimit="10" stroke-linecap="round" stroke-linejoin="round"/>
<path d="M82.3837 56.4662H92.6049" stroke="white" stroke-miterlimit="10" stroke-linecap="round" stroke-linejoin="round"/>
<path d="M98.0864 56.4662H110.237" stroke="white" stroke-miterlimit="10" stroke-linecap="round" stroke-linejoin="round"/>
<path d="M42.5671 65.7524H50.384" stroke="white" stroke-miterlimit="10" stroke-linecap="round" stroke-linejoin="round"/>
<path d="M55.173 65.7518H83.3729" stroke="white" stroke-miterlimit="10" stroke-linecap="round" stroke-linejoin="round"/>
<path d="M458.887 41.7518H441.74C438.553 41.7518 435.971 39.1759 435.971 35.998V18.8944C435.971 15.7165 438.553 13.1406 441.74 13.1406H458.887C462.073 13.1406 464.656 15.7165 464.656 18.8944V35.998C464.656 39.1759 462.073 41.7518 458.887 41.7518Z" fill="#824AC2"/>
<path d="M460.074 25.9698L459.648 24.0947C459.569 23.7295 459.193 23.5025 458.827 23.5815L457.719 23.8381C457.432 23.9072 457.145 23.769 456.987 23.5222C456.551 22.8413 456.017 22.2294 455.404 21.7162C455.156 21.5089 455.077 21.1733 455.215 20.8871L455.77 19.7522C455.938 19.4166 455.789 19.0021 455.453 18.8442L453.711 18.0053C453.375 17.8375 452.96 17.9855 452.801 18.3211L452.207 19.5548C452.079 19.8311 451.772 19.9693 451.475 19.9298C451.109 19.8805 450.723 19.8508 450.347 19.8508C449.961 19.8508 449.585 19.8805 449.219 19.9298C448.913 19.9693 448.616 19.8311 448.487 19.5548L447.893 18.3211C447.725 17.9855 447.32 17.8375 446.983 18.0053L445.242 18.8442C444.905 19.012 444.757 19.4166 444.925 19.7522L445.479 20.8871C445.618 21.1733 445.529 21.5089 445.291 21.7162C444.678 22.2392 444.133 22.8413 443.708 23.5222C443.55 23.769 443.263 23.9072 442.976 23.8381L441.868 23.5815C441.501 23.5025 441.135 23.7295 441.046 24.0947L440.621 25.9698C440.542 26.335 440.769 26.7002 441.135 26.789L442.54 27.1048C442.53 27.3022 442.511 27.4897 442.511 27.6871C442.511 28.6247 442.679 29.5327 442.986 30.3617C443.085 30.638 443.015 30.9539 442.778 31.1414L442.234 31.5756C441.937 31.8125 441.887 32.2369 442.125 32.533L443.273 34.043C443.51 34.3391 443.936 34.3884 444.232 34.1515L444.608 33.8456C444.866 33.6482 445.222 33.6581 445.469 33.8555C446.261 34.4674 447.161 34.9411 448.151 35.2273C448.448 35.3161 448.665 35.5727 448.665 35.8885V36.2833C448.665 36.6583 448.972 36.9643 449.348 36.9643H451.277C451.653 36.9643 451.96 36.6583 451.96 36.2833V35.8885C451.96 35.5727 452.178 35.3161 452.475 35.2273C453.464 34.9411 454.365 34.4772 455.156 33.8555C455.413 33.6581 455.77 33.6383 456.017 33.8456L456.393 34.1515C456.69 34.3884 457.115 34.3391 457.353 34.043L458.56 32.5428C458.797 32.2468 458.748 31.8224 458.451 31.5855L457.907 31.1513C457.669 30.9637 457.6 30.6479 457.699 30.3716C458.006 29.5327 458.174 28.6346 458.174 27.697C458.174 27.4996 458.154 27.3121 458.144 27.1147L459.549 26.7989C459.925 26.7002 460.153 26.335 460.074 25.9698ZM450.318 32.5626C447.616 32.5626 445.43 30.3814 445.43 27.6871C445.43 24.9928 447.616 22.8117 450.318 22.8117C453.019 22.8117 455.206 24.9928 455.206 27.6871C455.206 30.3814 453.019 32.5626 450.318 32.5626Z" fill="white"/>
<path d="M611.074 155.023C612.831 144.236 605.487 134.073 594.672 132.324C583.856 130.574 573.664 137.901 571.907 148.689C570.151 159.476 577.494 169.639 588.31 171.388C599.125 173.137 609.317 165.811 611.074 155.023Z" fill="#824AC2"/>
<path d="M602.35 154.453C603.766 148.475 600.055 142.486 594.061 141.076C588.067 139.665 582.06 143.368 580.644 149.346C579.227 155.324 582.938 161.313 588.932 162.724C594.926 164.134 600.933 160.431 602.35 154.453Z" fill="#824AC2" stroke="white" stroke-miterlimit="10" stroke-linecap="round" stroke-linejoin="round"/>
<path d="M591.476 144.588V151.862L587.627 155.701" fill="#824AC2"/>
<path d="M591.476 144.588V151.862L587.627 155.701" stroke="white" stroke-miterlimit="10" stroke-linecap="round" stroke-linejoin="round"/>
<path d="M591.476 140.74V141.805" stroke="white" stroke-miterlimit="10" stroke-linecap="round" stroke-linejoin="round"/>
<path d="M591.476 161.93V162.986" stroke="white" stroke-miterlimit="10" stroke-linecap="round" stroke-linejoin="round"/>
<path d="M602.628 151.863H601.559" stroke="white" stroke-miterlimit="10" stroke-linecap="round" stroke-linejoin="round"/>
<path d="M581.394 151.863H580.325" stroke="white" stroke-miterlimit="10" stroke-linecap="round" stroke-linejoin="round"/>
</svg>
