<svg width="237" height="71" viewBox="0 0 237 71" fill="none" xmlns="http://www.w3.org/2000/svg">
<path d="M7.82227 13.3438H15.2637L26.2207 44.6621L37.1777 13.3438H44.6191L29.209 56H23.2324L7.82227 13.3438ZM3.80859 13.3438H11.2207L12.5684 43.8711V56H3.80859V13.3438ZM41.2207 13.3438H48.6621V56H39.873V43.8711L41.2207 13.3438ZM65.2441 52.4258L73.6523 24.3008H82.7051L69.9609 60.7754C69.6875 61.5762 69.3164 62.4355 68.8477 63.3535C68.3984 64.2715 67.7832 65.1406 67.002 65.9609C66.2402 66.8008 65.2734 67.4844 64.1016 68.0117C62.9492 68.5391 61.5332 68.8027 59.8535 68.8027C59.0527 68.8027 58.3984 68.7539 57.8906 68.6562C57.3828 68.5586 56.7773 68.4219 56.0742 68.2461V62.0645C56.2891 62.0645 56.5137 62.0645 56.748 62.0645C56.9824 62.084 57.207 62.0938 57.4219 62.0938C58.5352 62.0938 59.4434 61.9668 60.1465 61.7129C60.8496 61.459 61.416 61.0684 61.8457 60.541C62.2754 60.0332 62.6172 59.3691 62.8711 58.5488L65.2441 52.4258ZM61.7285 24.3008L68.6133 47.2695L69.8145 56.2051L64.0723 56.8203L52.6758 24.3008H61.7285Z" fill="white"/>
<path d="M120.615 13.3438V56H111.855V13.3438H120.615ZM133.74 13.3438V20.2285H98.9355V13.3438H133.74ZM131.777 40.4727V39.8574C131.777 37.5332 132.109 35.3945 132.773 33.4414C133.438 31.4688 134.404 29.7598 135.674 28.3145C136.943 26.8691 138.506 25.7461 140.361 24.9453C142.217 24.125 144.346 23.7148 146.748 23.7148C149.15 23.7148 151.289 24.125 153.164 24.9453C155.039 25.7461 156.611 26.8691 157.881 28.3145C159.17 29.7598 160.146 31.4688 160.811 33.4414C161.475 35.3945 161.807 37.5332 161.807 39.8574V40.4727C161.807 42.7773 161.475 44.916 160.811 46.8887C160.146 48.8418 159.17 50.5508 157.881 52.0156C156.611 53.4609 155.049 54.584 153.193 55.3848C151.338 56.1855 149.209 56.5859 146.807 56.5859C144.404 56.5859 142.266 56.1855 140.391 55.3848C138.535 54.584 136.963 53.4609 135.674 52.0156C134.404 50.5508 133.438 48.8418 132.773 46.8887C132.109 44.916 131.777 42.7773 131.777 40.4727ZM140.215 39.8574V40.4727C140.215 41.8008 140.332 43.041 140.566 44.1934C140.801 45.3457 141.172 46.3613 141.68 47.2402C142.207 48.0996 142.891 48.7734 143.73 49.2617C144.57 49.75 145.596 49.9941 146.807 49.9941C147.979 49.9941 148.984 49.75 149.824 49.2617C150.664 48.7734 151.338 48.0996 151.846 47.2402C152.354 46.3613 152.725 45.3457 152.959 44.1934C153.213 43.041 153.34 41.8008 153.34 40.4727V39.8574C153.34 38.5684 153.213 37.3574 152.959 36.2246C152.725 35.0723 152.344 34.0566 151.816 33.1777C151.309 32.2793 150.635 31.5762 149.795 31.0684C148.955 30.5605 147.939 30.3066 146.748 30.3066C145.557 30.3066 144.541 30.5605 143.701 31.0684C142.881 31.5762 142.207 32.2793 141.68 33.1777C141.172 34.0566 140.801 35.0723 140.566 36.2246C140.332 37.3574 140.215 38.5684 140.215 39.8574ZM180.615 56H171.328L171.387 49.1445H180.615C182.92 49.1445 184.863 48.627 186.445 47.5918C188.027 46.5371 189.219 45.0039 190.02 42.9922C190.84 40.9805 191.25 38.5488 191.25 35.6973V33.6172C191.25 31.4297 191.016 29.5059 190.547 27.8457C190.098 26.1855 189.424 24.7891 188.525 23.6562C187.627 22.5234 186.523 21.6738 185.215 21.1074C183.906 20.5215 182.402 20.2285 180.703 20.2285H171.152V13.3438H180.703C183.555 13.3438 186.162 13.832 188.525 14.8086C190.908 15.7656 192.969 17.1426 194.707 18.9395C196.445 20.7363 197.783 22.8848 198.721 25.3848C199.678 27.8652 200.156 30.6289 200.156 33.6758V35.6973C200.156 38.7246 199.678 41.4883 198.721 43.9883C197.783 46.4883 196.445 48.6367 194.707 50.4336C192.988 52.2109 190.928 53.5879 188.525 54.5645C186.143 55.5215 183.506 56 180.615 56ZM176.309 13.3438V56H167.52V13.3438H176.309Z" fill="#6C5DD2"/>
<path d="M237 39.5C237 48.6127 229.613 56 220.5 56C211.387 56 204 48.6127 204 39.5C204 30.3873 211.387 23 220.5 23C229.613 23 237 30.3873 237 39.5ZM218.591 48.2366L230.833 35.9947C231.249 35.579 231.249 34.905 230.833 34.4893L229.328 32.9838C228.912 32.5681 228.238 32.5681 227.822 32.9838L217.839 42.9675L213.178 38.3063C212.762 37.8907 212.088 37.8907 211.672 38.3063L210.167 39.8118C209.751 40.2275 209.751 40.9015 210.167 41.3172L217.086 48.2366C217.502 48.6523 218.176 48.6523 218.591 48.2366Z" fill="#6C5DD2"/>
</svg>
