<svg width="694" height="150" viewBox="0 0 694 150" fill="none" xmlns="http://www.w3.org/2000/svg">
<path d="M48.8125 28V119H30.125V28H48.8125ZM76.8125 28V42.6875H2.5625V28H76.8125ZM121.625 102.812V51.375H139.625V119H122.688L121.625 102.812ZM123.625 88.9375L128.938 88.8125C128.938 93.3125 128.417 97.5 127.375 101.375C126.333 105.208 124.771 108.542 122.688 111.375C120.604 114.167 117.979 116.354 114.812 117.938C111.646 119.479 107.917 120.25 103.625 120.25C100.333 120.25 97.2917 119.792 94.5 118.875C91.75 117.917 89.375 116.438 87.375 114.438C85.4167 112.396 83.875 109.792 82.75 106.625C81.6667 103.417 81.125 99.5625 81.125 95.0625V51.375H99.125V95.1875C99.125 97.1875 99.3542 98.875 99.8125 100.25C100.312 101.625 101 102.75 101.875 103.625C102.75 104.5 103.771 105.125 104.938 105.5C106.146 105.875 107.479 106.062 108.938 106.062C112.646 106.062 115.562 105.312 117.688 103.812C119.854 102.312 121.375 100.271 122.25 97.6875C123.167 95.0625 123.625 92.1458 123.625 88.9375ZM171.375 66.125V119H153.375V51.375H170.312L171.375 66.125ZM191.75 50.9375L191.438 67.625C190.562 67.5 189.5 67.3958 188.25 67.3125C187.042 67.1875 185.938 67.125 184.938 67.125C182.396 67.125 180.188 67.4583 178.312 68.125C176.479 68.75 174.938 69.6875 173.688 70.9375C172.479 72.1875 171.562 73.7083 170.938 75.5C170.354 77.2917 170.021 79.3333 169.938 81.625L166.312 80.5C166.312 76.125 166.75 72.1042 167.625 68.4375C168.5 64.7292 169.771 61.5 171.438 58.75C173.146 56 175.229 53.875 177.688 52.375C180.146 50.875 182.958 50.125 186.125 50.125C187.125 50.125 188.146 50.2083 189.188 50.375C190.229 50.5 191.083 50.6875 191.75 50.9375ZM236.5 51.375V64.125H197.125V51.375H236.5ZM206.875 34.6875H224.875V98.625C224.875 100.583 225.125 102.083 225.625 103.125C226.167 104.167 226.958 104.896 228 105.312C229.042 105.688 230.354 105.875 231.938 105.875C233.062 105.875 234.062 105.833 234.938 105.75C235.854 105.625 236.625 105.5 237.25 105.375L237.312 118.625C235.771 119.125 234.104 119.521 232.312 119.812C230.521 120.104 228.542 120.25 226.375 120.25C222.417 120.25 218.958 119.604 216 118.312C213.083 116.979 210.833 114.854 209.25 111.938C207.667 109.021 206.875 105.188 206.875 100.438V34.6875ZM265.75 23V119H247.688V23H265.75ZM311.75 120.25C306.5 120.25 301.792 119.417 297.625 117.75C293.458 116.042 289.917 113.688 287 110.688C284.125 107.688 281.917 104.208 280.375 100.25C278.833 96.25 278.062 92 278.062 87.5V85C278.062 79.875 278.792 75.1875 280.25 70.9375C281.708 66.6875 283.792 63 286.5 59.875C289.25 56.75 292.583 54.3542 296.5 52.6875C300.417 50.9792 304.833 50.125 309.75 50.125C314.542 50.125 318.792 50.9167 322.5 52.5C326.208 54.0833 329.312 56.3333 331.812 59.25C334.354 62.1667 336.271 65.6667 337.562 69.75C338.854 73.7917 339.5 78.2917 339.5 83.25V90.75H285.75V78.75H321.812V77.375C321.812 74.875 321.354 72.6458 320.438 70.6875C319.562 68.6875 318.229 67.1042 316.438 65.9375C314.646 64.7708 312.354 64.1875 309.562 64.1875C307.188 64.1875 305.146 64.7083 303.438 65.75C301.729 66.7917 300.333 68.25 299.25 70.125C298.208 72 297.417 74.2083 296.875 76.75C296.375 79.25 296.125 82 296.125 85V87.5C296.125 90.2083 296.5 92.7083 297.25 95C298.042 97.2917 299.146 99.2708 300.562 100.938C302.021 102.604 303.771 103.896 305.812 104.812C307.896 105.729 310.25 106.188 312.875 106.188C316.125 106.188 319.146 105.562 321.938 104.312C324.771 103.021 327.208 101.083 329.25 98.5L338 108C336.583 110.042 334.646 112 332.188 113.875C329.771 115.75 326.854 117.292 323.438 118.5C320.021 119.667 316.125 120.25 311.75 120.25Z" fill="white"/>
<path d="M423.438 28V119H404.75V28H423.438ZM451.438 28V42.6875H377.188V28H451.438ZM447.25 85.875V84.5625C447.25 79.6042 447.958 75.0417 449.375 70.875C450.792 66.6667 452.854 63.0208 455.562 59.9375C458.271 56.8542 461.604 54.4583 465.562 52.75C469.521 51 474.062 50.125 479.188 50.125C484.312 50.125 488.875 51 492.875 52.75C496.875 54.4583 500.229 56.8542 502.938 59.9375C505.688 63.0208 507.771 66.6667 509.188 70.875C510.604 75.0417 511.312 79.6042 511.312 84.5625V85.875C511.312 90.7917 510.604 95.3542 509.188 99.5625C507.771 103.729 505.688 107.375 502.938 110.5C500.229 113.583 496.896 115.979 492.938 117.688C488.979 119.396 484.438 120.25 479.312 120.25C474.188 120.25 469.625 119.396 465.625 117.688C461.667 115.979 458.312 113.583 455.562 110.5C452.854 107.375 450.792 103.729 449.375 99.5625C447.958 95.3542 447.25 90.7917 447.25 85.875ZM465.25 84.5625V85.875C465.25 88.7083 465.5 91.3542 466 93.8125C466.5 96.2708 467.292 98.4375 468.375 100.312C469.5 102.146 470.958 103.583 472.75 104.625C474.542 105.667 476.729 106.188 479.312 106.188C481.812 106.188 483.958 105.667 485.75 104.625C487.542 103.583 488.979 102.146 490.062 100.312C491.146 98.4375 491.938 96.2708 492.438 93.8125C492.979 91.3542 493.25 88.7083 493.25 85.875V84.5625C493.25 81.8125 492.979 79.2292 492.438 76.8125C491.938 74.3542 491.125 72.1875 490 70.3125C488.917 68.3958 487.479 66.8958 485.688 65.8125C483.896 64.7292 481.729 64.1875 479.188 64.1875C476.646 64.1875 474.479 64.7292 472.688 65.8125C470.938 66.8958 469.5 68.3958 468.375 70.3125C467.292 72.1875 466.5 74.3542 466 76.8125C465.5 79.2292 465.25 81.8125 465.25 84.5625ZM551.438 119H531.625L531.75 104.375H551.438C556.354 104.375 560.5 103.271 563.875 101.062C567.25 98.8125 569.792 95.5417 571.5 91.25C573.25 86.9583 574.125 81.7708 574.125 75.6875V71.25C574.125 66.5833 573.625 62.4792 572.625 58.9375C571.667 55.3958 570.229 52.4167 568.312 50C566.396 47.5833 564.042 45.7708 561.25 44.5625C558.458 43.3125 555.25 42.6875 551.625 42.6875H531.25V28H551.625C557.708 28 563.271 29.0417 568.312 31.125C573.396 33.1667 577.792 36.1042 581.5 39.9375C585.208 43.7708 588.062 48.3542 590.062 53.6875C592.104 58.9792 593.125 64.875 593.125 71.375V75.6875C593.125 82.1458 592.104 88.0417 590.062 93.375C588.062 98.7083 585.208 103.292 581.5 107.125C577.833 110.917 573.438 113.854 568.312 115.938C563.229 117.979 557.604 119 551.438 119ZM542.25 28V119H523.5V28H542.25Z" fill="#1E2128"/>
<path d="M694 75C694 99.8529 673.853 120 649 120C624.147 120 604 99.8529 604 75C604 50.1471 624.147 30 649 30C673.853 30 694 50.1471 694 75ZM643.795 98.8271L677.182 65.44C678.316 64.3063 678.316 62.468 677.182 61.3343L673.076 57.2286C671.943 56.0947 670.104 56.0947 668.97 57.2286L641.742 84.4569L629.03 71.7446C627.896 70.6109 626.058 70.6109 624.924 71.7446L620.818 75.8503C619.684 76.984 619.684 78.8223 620.818 79.956L639.689 98.827C640.823 99.9608 642.661 99.9608 643.795 98.8271V98.8271Z" fill="#1E2128"/>
</svg>
