<svg width="331" height="59" viewBox="0 0 331 59" fill="none" xmlns="http://www.w3.org/2000/svg">
<path d="M22.8809 13.3438V56H14.1211V13.3438H22.8809ZM36.0059 13.3438V20.2285H1.20117V13.3438H36.0059ZM57.0117 48.4121V24.3008H65.4492V56H57.5098L57.0117 48.4121ZM57.9492 41.9082L60.4395 41.8496C60.4395 43.959 60.1953 45.9219 59.707 47.7383C59.2188 49.5352 58.4863 51.0977 57.5098 52.4258C56.5332 53.7344 55.3027 54.7598 53.8184 55.502C52.334 56.2246 50.5859 56.5859 48.5742 56.5859C47.0312 56.5859 45.6055 56.3711 44.2969 55.9414C43.0078 55.4922 41.8945 54.7988 40.957 53.8613C40.0391 52.9043 39.3164 51.6836 38.7891 50.1992C38.2812 48.6953 38.0273 46.8887 38.0273 44.7793V24.3008H46.4648V44.8379C46.4648 45.7754 46.5723 46.5664 46.7871 47.2109C47.0215 47.8555 47.3438 48.3828 47.7539 48.793C48.1641 49.2031 48.6426 49.4961 49.1895 49.6719C49.7559 49.8477 50.3809 49.9355 51.0645 49.9355C52.8027 49.9355 54.1699 49.584 55.166 48.8809C56.1816 48.1777 56.8945 47.2207 57.3047 46.0098C57.7344 44.7793 57.9492 43.4121 57.9492 41.9082ZM80.332 31.2148V56H71.8945V24.3008H79.834L80.332 31.2148ZM89.8828 24.0957L89.7363 31.918C89.3262 31.8594 88.8281 31.8105 88.2422 31.7715C87.6758 31.7129 87.1582 31.6836 86.6895 31.6836C85.498 31.6836 84.4629 31.8398 83.584 32.1523C82.7246 32.4453 82.002 32.8848 81.416 33.4707C80.8496 34.0566 80.4199 34.7695 80.127 35.6094C79.8535 36.4492 79.6973 37.4062 79.6582 38.4805L77.959 37.9531C77.959 35.9023 78.1641 34.0176 78.5742 32.2988C78.9844 30.5605 79.5801 29.0469 80.3613 27.7578C81.1621 26.4688 82.1387 25.4727 83.291 24.7695C84.4434 24.0664 85.7617 23.7148 87.2461 23.7148C87.7148 23.7148 88.1934 23.7539 88.6816 23.832C89.1699 23.8906 89.5703 23.9785 89.8828 24.0957ZM110.859 24.3008V30.2773H92.4023V24.3008H110.859ZM96.9727 16.4785H105.41V46.4492C105.41 47.3672 105.527 48.0703 105.762 48.5586C106.016 49.0469 106.387 49.3887 106.875 49.584C107.363 49.7598 107.979 49.8477 108.721 49.8477C109.248 49.8477 109.717 49.8281 110.127 49.7891C110.557 49.7305 110.918 49.6719 111.211 49.6133L111.24 55.8242C110.518 56.0586 109.736 56.2441 108.896 56.3809C108.057 56.5176 107.129 56.5859 106.113 56.5859C104.258 56.5859 102.637 56.2832 101.25 55.6777C99.8828 55.0527 98.8281 54.0566 98.0859 52.6895C97.3438 51.3223 96.9727 49.5254 96.9727 47.2988V16.4785ZM124.57 11V56H116.104V11H124.57ZM146.133 56.5859C143.672 56.5859 141.465 56.1953 139.512 55.4141C137.559 54.6133 135.898 53.5098 134.531 52.1035C133.184 50.6973 132.148 49.0664 131.426 47.2109C130.703 45.3359 130.342 43.3438 130.342 41.2344V40.0625C130.342 37.6602 130.684 35.4629 131.367 33.4707C132.051 31.4785 133.027 29.75 134.297 28.2852C135.586 26.8203 137.148 25.6973 138.984 24.916C140.82 24.1152 142.891 23.7148 145.195 23.7148C147.441 23.7148 149.434 24.0859 151.172 24.8281C152.91 25.5703 154.365 26.625 155.537 27.9922C156.729 29.3594 157.627 31 158.232 32.9141C158.838 34.8086 159.141 36.918 159.141 39.2422V42.7578H133.945V37.1328H150.85V36.4883C150.85 35.3164 150.635 34.2715 150.205 33.3535C149.795 32.416 149.17 31.6738 148.33 31.127C147.49 30.5801 146.416 30.3066 145.107 30.3066C143.994 30.3066 143.037 30.5508 142.236 31.0391C141.436 31.5273 140.781 32.2109 140.273 33.0898C139.785 33.9688 139.414 35.0039 139.16 36.1953C138.926 37.3672 138.809 38.6562 138.809 40.0625V41.2344C138.809 42.5039 138.984 43.6758 139.336 44.75C139.707 45.8242 140.225 46.752 140.889 47.5332C141.572 48.3145 142.393 48.9199 143.35 49.3496C144.326 49.7793 145.43 49.9941 146.66 49.9941C148.184 49.9941 149.6 49.7012 150.908 49.1152C152.236 48.5098 153.379 47.6016 154.336 46.3906L158.438 50.8438C157.773 51.8008 156.865 52.7188 155.713 53.5977C154.58 54.4766 153.213 55.1992 151.611 55.7656C150.01 56.3125 148.184 56.5859 146.133 56.5859Z" fill="white"/>
<path d="M198.486 13.3438V56H189.727V13.3438H198.486ZM211.611 13.3438V20.2285H176.807V13.3438H211.611ZM209.648 40.4727V39.8574C209.648 37.5332 209.98 35.3945 210.645 33.4414C211.309 31.4688 212.275 29.7598 213.545 28.3145C214.814 26.8691 216.377 25.7461 218.232 24.9453C220.088 24.125 222.217 23.7148 224.619 23.7148C227.021 23.7148 229.16 24.125 231.035 24.9453C232.91 25.7461 234.482 26.8691 235.752 28.3145C237.041 29.7598 238.018 31.4688 238.682 33.4414C239.346 35.3945 239.678 37.5332 239.678 39.8574V40.4727C239.678 42.7773 239.346 44.916 238.682 46.8887C238.018 48.8418 237.041 50.5508 235.752 52.0156C234.482 53.4609 232.92 54.584 231.064 55.3848C229.209 56.1855 227.08 56.5859 224.678 56.5859C222.275 56.5859 220.137 56.1855 218.262 55.3848C216.406 54.584 214.834 53.4609 213.545 52.0156C212.275 50.5508 211.309 48.8418 210.645 46.8887C209.98 44.916 209.648 42.7773 209.648 40.4727ZM218.086 39.8574V40.4727C218.086 41.8008 218.203 43.041 218.438 44.1934C218.672 45.3457 219.043 46.3613 219.551 47.2402C220.078 48.0996 220.762 48.7734 221.602 49.2617C222.441 49.75 223.467 49.9941 224.678 49.9941C225.85 49.9941 226.855 49.75 227.695 49.2617C228.535 48.7734 229.209 48.0996 229.717 47.2402C230.225 46.3613 230.596 45.3457 230.83 44.1934C231.084 43.041 231.211 41.8008 231.211 40.4727V39.8574C231.211 38.5684 231.084 37.3574 230.83 36.2246C230.596 35.0723 230.215 34.0566 229.688 33.1777C229.18 32.2793 228.506 31.5762 227.666 31.0684C226.826 30.5605 225.811 30.3066 224.619 30.3066C223.428 30.3066 222.412 30.5605 221.572 31.0684C220.752 31.5762 220.078 32.2793 219.551 33.1777C219.043 34.0566 218.672 35.0723 218.438 36.2246C218.203 37.3574 218.086 38.5684 218.086 39.8574ZM258.486 56H249.199L249.258 49.1445H258.486C260.791 49.1445 262.734 48.627 264.316 47.5918C265.898 46.5371 267.09 45.0039 267.891 42.9922C268.711 40.9805 269.121 38.5488 269.121 35.6973V33.6172C269.121 31.4297 268.887 29.5059 268.418 27.8457C267.969 26.1855 267.295 24.7891 266.396 23.6562C265.498 22.5234 264.395 21.6738 263.086 21.1074C261.777 20.5215 260.273 20.2285 258.574 20.2285H249.023V13.3438H258.574C261.426 13.3438 264.033 13.832 266.396 14.8086C268.779 15.7656 270.84 17.1426 272.578 18.9395C274.316 20.7363 275.654 22.8848 276.592 25.3848C277.549 27.8652 278.027 30.6289 278.027 33.6758V35.6973C278.027 38.7246 277.549 41.4883 276.592 43.9883C275.654 46.4883 274.316 48.6367 272.578 50.4336C270.859 52.2109 268.799 53.5879 266.396 54.5645C264.014 55.5215 261.377 56 258.486 56ZM254.18 13.3438V56H245.391V13.3438H254.18Z" fill="#6C5DD2"/>
<path d="M327 36C327 47.0457 318.046 56 307 56C295.954 56 287 47.0457 287 36C287 24.9543 295.954 16 307 16C318.046 16 327 24.9543 327 36ZM304.687 46.5898L319.525 31.7511C320.029 31.2473 320.029 30.4302 319.525 29.9264L317.701 28.1016C317.197 27.5977 316.38 27.5977 315.876 28.1016L303.774 40.2031L298.124 34.5531C297.62 34.0493 296.803 34.0493 296.299 34.5531L294.475 36.3779C293.971 36.8818 293.971 37.6988 294.475 38.2027L302.862 46.5898C303.366 47.0937 304.183 47.0937 304.687 46.5898V46.5898Z" fill="#6C5DD2"/>
</svg>
