<svg width="20" height="19" viewBox="0 0 20 19" fill="none" xmlns="http://www.w3.org/2000/svg">
<g clip-path="url(#clip0_2_949)">
<path d="M15.4444 8.17145H4.55556C3.69645 8.17145 3 8.90407 3 9.80781V15.5351C3 16.4388 3.69645 17.1714 4.55556 17.1714H15.4444C16.3036 17.1714 17 16.4388 17 15.5351V9.80781C17 8.90407 16.3036 8.17145 15.4444 8.17145Z" stroke="#666360" stroke-width="1.5" stroke-linecap="round" stroke-linejoin="round"/>
<path d="M6 8.17144V4.97144C6 3.91057 6.42143 2.89315 7.17157 2.14301C7.92172 1.39286 8.93913 0.971436 10 0.971436C11.0609 0.971436 12.0783 1.39286 12.8284 2.14301C13.5786 2.89315 14 3.91057 14 4.97144V8.17144" stroke="#666360" stroke-width="1.5" stroke-linecap="round" stroke-linejoin="round"/>
</g>
<defs>
<clipPath id="clip0_2_949">
<rect width="20" height="18" fill="white" transform="translate(0 0.0714417)"/>
</clipPath>
</defs>
</svg>
